<svg width="176" height="39" viewBox="0 0 176 39" fill="none" xmlns="http://www.w3.org/2000/svg">
<path d="M28.1823 19.1643C28.2173 14.333 24.3663 10.272 19.5001 10.062C17.5046 9.95696 15.6141 10.5521 14.0737 11.5674C12.5334 10.5521 10.6429 9.95696 8.64739 10.062C3.8512 10.237 -0.034774 14.298 0.000234702 19.1643C0.000234702 20.7046 0.805436 23.5754 2.87095 24.6606C2.80093 26.271 2.48585 31.6974 5.91671 35.5133C7.28205 37.0537 9.69765 37.0887 11.098 35.5833C11.6231 35.0232 12.0782 34.253 12.2883 33.2728C12.5334 32.2575 12.7784 30.7521 12.9885 29.1417C13.1635 27.8814 14.984 27.8814 15.159 29.1417C15.4041 30.7171 15.6491 32.2225 15.8592 33.2728C16.0692 34.288 16.5244 35.0232 17.0495 35.5833C18.4498 37.0887 20.8654 37.0537 22.2308 35.5133C25.6616 31.7324 25.3466 26.271 25.2765 24.6606C27.307 23.6804 28.1823 20.7046 28.1823 19.1643ZM5.63664 14.158C4.97148 14.7181 4.41134 15.3833 3.95622 16.1535C3.32606 17.2738 2.97598 18.5341 2.97598 19.7944C2.97598 20.1795 2.6609 20.4946 2.24079 20.4946C1.82069 20.4946 1.50561 20.1795 1.50561 19.7594C1.50561 18.254 1.92572 16.7136 2.6609 15.4183C3.18603 14.5081 3.8512 13.7029 4.6564 13.0027C4.97148 12.7577 5.42659 12.7927 5.67165 13.1077C5.98673 13.4578 5.95172 13.9129 5.63664 14.158ZM7.21203 13.0377L7.072 13.1077C6.96697 13.1778 6.86195 13.1778 6.72191 13.1778C6.47685 13.1778 6.19678 13.0377 6.09175 12.7927C5.91671 12.4426 6.05675 11.9875 6.40683 11.8124L6.54687 11.7424C6.89696 11.5674 7.35207 11.7074 7.52711 12.0575C7.70216 12.4076 7.56212 12.8627 7.21203 13.0377Z" fill="white"/>
<path d="M21.4256 1.625C15.6842 1.625 10.5729 4.39069 7.38708 8.62675C7.77218 8.55673 8.19229 8.52172 8.61239 8.48671C8.75243 8.48671 8.92747 8.48671 9.0675 8.48671C9.48761 8.48671 9.90771 8.52172 10.3278 8.55673C10.3978 8.48671 10.5029 8.38169 10.5729 8.31167C13.4786 5.40594 17.3296 3.83055 21.4256 3.83055C23.071 3.83055 24.6814 4.07561 26.2218 4.60074C26.5019 4.60074 28.2173 4.60074 28.2173 4.60074C28.2173 4.60074 28.2173 3.06036 28.2173 2.99034C26.1518 2.11512 23.8412 1.625 21.4256 1.625Z" fill="white"/>
<path d="M37.4946 12.0576C36.8645 12.0576 35.7792 12.0576 35.7792 12.0576C35.7792 12.0576 35.7792 13.528 35.7792 13.738C36.4093 15.4535 36.7594 17.2739 36.7594 19.1294C36.7594 23.2254 35.149 27.0764 32.2783 29.9821C30.2828 31.9776 27.7972 33.3779 25.1365 34.0081C24.6814 34.8833 24.1213 35.7235 23.3861 36.4937C23.3511 36.5287 23.3161 36.5637 23.3161 36.5987C32.1383 35.6535 39 28.1966 39 19.1644C38.965 16.6438 38.4398 14.2282 37.4946 12.0576Z" fill="white"/>
<path d="M37.0744 6.03597H34.2737V3.23527C34.2737 2.71014 33.8536 2.29004 33.3285 2.29004H30.6678C30.1427 2.29004 29.7226 2.71014 29.7226 3.23527V6.03597H26.9219C26.3968 6.03597 25.9767 6.45608 25.9767 6.98121V9.64187C25.9767 10.167 26.3968 10.5871 26.9219 10.5871H29.7226V13.3878C29.7226 13.9129 30.1427 14.333 30.6678 14.333H33.3285C33.8536 14.333 34.2737 13.9129 34.2737 13.3878V10.5871H37.0744C37.5996 10.5871 38.0197 10.167 38.0197 9.64187V6.98121C38.0197 6.45608 37.5996 6.03597 37.0744 6.03597ZM31.228 5.65088C31.228 5.89594 31.0529 6.07098 30.8079 6.07098C30.5628 6.07098 30.3878 5.89594 30.3878 5.65088V4.63562C30.3878 4.39056 30.5628 4.21552 30.8079 4.21552C31.0529 4.21552 31.228 4.39056 31.228 4.63562V5.65088ZM31.228 3.41032C31.228 3.62037 31.0529 3.83042 30.8079 3.83042C30.5628 3.83042 30.3878 3.65538 30.3878 3.41032V3.30529C30.3878 3.06023 30.5628 2.88519 30.8079 2.88519C31.0529 2.88519 31.228 3.06023 31.228 3.30529V3.41032Z" fill="white"/>
<path d="M59.1321 28.951C59.3824 28.9737 59.7123 28.9965 60.1218 29.0192C60.5313 29.0192 61.0886 29.0192 61.7939 29.0192C64.6831 29.0192 66.833 28.2912 68.2435 26.8352C69.6768 25.3565 70.3934 23.2976 70.3934 20.6586C70.3934 17.9741 69.6995 15.9152 68.3118 14.482C66.924 13.0487 64.7741 12.3321 61.8621 12.3321C60.5881 12.3321 59.6781 12.3662 59.1321 12.4345V28.951ZM74.8979 20.6586C74.8979 22.7061 74.5794 24.492 73.9424 26.0162C73.3054 27.5177 72.3954 28.7804 71.2124 29.8041C70.0521 30.8051 68.6416 31.5559 66.9809 32.0564C65.3429 32.5341 63.5229 32.773 61.5209 32.773C60.5654 32.773 59.4848 32.7275 58.279 32.6365C57.0733 32.5683 55.9244 32.409 54.8324 32.1587V9.19262C55.9244 8.94237 57.0846 8.78312 58.3131 8.71487C59.5416 8.64662 60.6336 8.6125 61.5891 8.6125C63.5684 8.6125 65.377 8.85137 67.015 9.32912C68.653 9.78412 70.0521 10.5121 71.2124 11.5131C72.3954 12.4914 73.3054 13.7426 73.9424 15.2669C74.5794 16.7684 74.8979 18.5656 74.8979 20.6586ZM78.3986 23.6616C78.3986 22.0919 78.6261 20.7155 79.0811 19.5325C79.5589 18.3495 80.1845 17.3712 80.958 16.5977C81.7315 15.8015 82.6187 15.21 83.6197 14.8232C84.6207 14.4137 85.6445 14.209 86.691 14.209C89.148 14.209 91.059 14.9711 92.424 16.4954C93.8117 18.0196 94.5056 20.2946 94.5056 23.3204C94.5056 23.5479 94.4942 23.8095 94.4715 24.1052C94.4715 24.3782 94.4601 24.6285 94.4374 24.856H82.6642C82.778 26.2892 83.2785 27.404 84.1657 28.2002C85.0757 28.9737 86.3839 29.3605 88.0901 29.3605C89.0911 29.3605 90.0011 29.2695 90.8201 29.0875C91.6619 28.9055 92.3216 28.7121 92.7994 28.5074L93.3454 31.8857C93.1179 31.9995 92.7994 32.1246 92.3899 32.2611C92.0031 32.3749 91.5481 32.4772 91.0249 32.5683C90.5244 32.682 89.9784 32.773 89.3869 32.8413C88.7954 32.9095 88.1925 32.9436 87.5782 32.9436C86.0085 32.9436 84.6435 32.7161 83.4832 32.2611C82.323 31.7834 81.3675 31.135 80.6167 30.316C79.866 29.4742 79.3086 28.496 78.9446 27.3812C78.5806 26.2437 78.3986 25.0039 78.3986 23.6616ZM90.3765 21.8189C90.3765 21.2501 90.2969 20.7155 90.1376 20.215C89.9784 19.6917 89.7395 19.2481 89.421 18.8841C89.1252 18.4974 88.7499 18.2016 88.2949 17.9969C87.8626 17.7694 87.3394 17.6556 86.7251 17.6556C86.0881 17.6556 85.5307 17.7807 85.053 18.031C84.5752 18.2585 84.1657 18.5656 83.8245 18.9524C83.506 19.3391 83.2557 19.7827 83.0737 20.2832C82.8917 20.7837 82.7666 21.2956 82.6984 21.8189H90.3765ZM98.8835 15.2327C99.6797 15.0052 100.715 14.7891 101.989 14.5844C103.263 14.3796 104.673 14.2772 106.22 14.2772C107.676 14.2772 108.893 14.482 109.872 14.8915C110.85 15.2782 111.623 15.8356 112.192 16.5636C112.784 17.2689 113.193 18.1334 113.421 19.1571C113.671 20.1581 113.796 21.2615 113.796 22.4673V32.5H109.667V23.1156C109.667 22.1601 109.599 21.3525 109.462 20.6927C109.348 20.0102 109.144 19.4642 108.848 19.0547C108.575 18.6225 108.188 18.3154 107.688 18.1334C107.21 17.9286 106.618 17.8262 105.913 17.8262C105.39 17.8262 104.844 17.8604 104.275 17.9286C103.706 17.9969 103.286 18.0537 103.013 18.0992V32.5H98.8835V15.2327ZM118.641 9.94337L122.77 9.26087V14.6526H129.117V18.0992H122.77V25.3679C122.77 26.8011 122.997 27.8249 123.452 28.4391C123.907 29.0534 124.681 29.3605 125.773 29.3605C126.523 29.3605 127.183 29.2809 127.752 29.1216C128.343 28.9624 128.81 28.8145 129.151 28.678L129.834 31.954C129.356 32.1587 128.73 32.3635 127.957 32.5683C127.183 32.7958 126.273 32.9095 125.227 32.9095C123.953 32.9095 122.883 32.7389 122.019 32.3976C121.177 32.0564 120.506 31.5672 120.006 30.9302C119.505 30.2705 119.152 29.4856 118.948 28.5756C118.743 27.6429 118.641 26.585 118.641 25.402V9.94337ZM137.272 32.5H133.143V14.6526H137.272V32.5ZM137.715 9.4315C137.715 10.205 137.465 10.8192 136.965 11.2742C136.464 11.7292 135.873 11.9567 135.19 11.9567C134.485 11.9567 133.882 11.7292 133.381 11.2742C132.881 10.8192 132.631 10.205 132.631 9.4315C132.631 8.63525 132.881 8.00962 133.381 7.55462C133.882 7.09962 134.485 6.87212 135.19 6.87212C135.873 6.87212 136.464 7.09962 136.965 7.55462C137.465 8.00962 137.715 8.63525 137.715 9.4315ZM141.55 23.5934C141.55 22.2739 141.755 21.0454 142.164 19.9079C142.574 18.7476 143.154 17.7466 143.904 16.9049C144.678 16.0631 145.611 15.4034 146.703 14.9256C147.795 14.4479 149.023 14.209 150.388 14.209C152.072 14.209 153.664 14.5161 155.166 15.1304L154.278 18.5087C153.801 18.304 153.255 18.1334 152.64 17.9969C152.049 17.8604 151.412 17.7921 150.729 17.7921C149.114 17.7921 147.886 18.304 147.044 19.3277C146.202 20.3287 145.781 21.7506 145.781 23.5934C145.781 25.3679 146.179 26.7784 146.976 27.8249C147.772 28.8486 149.114 29.3605 151.002 29.3605C151.708 29.3605 152.402 29.2922 153.084 29.1557C153.767 29.0192 154.358 28.8486 154.859 28.6439L155.439 32.0564C154.984 32.2839 154.29 32.4886 153.357 32.6706C152.447 32.8526 151.503 32.9436 150.525 32.9436C149 32.9436 147.67 32.7161 146.532 32.2611C145.417 31.7834 144.485 31.135 143.734 30.316C143.006 29.4742 142.46 28.4846 142.096 27.3471C141.732 26.1869 141.55 24.9356 141.55 23.5934ZM163.106 29.5311C164.198 29.5311 164.994 29.406 165.495 29.1557C165.995 28.8827 166.245 28.4277 166.245 27.7907C166.245 27.1992 165.972 26.7101 165.426 26.3234C164.903 25.9366 164.027 25.5157 162.799 25.0607C162.048 24.7877 161.354 24.5034 160.717 24.2076C160.103 23.8891 159.568 23.5251 159.113 23.1156C158.658 22.7061 158.294 22.217 158.021 21.6482C157.771 21.0567 157.646 20.3401 157.646 19.4984C157.646 17.8604 158.249 16.575 159.455 15.6422C160.66 14.6867 162.298 14.209 164.369 14.209C165.415 14.209 166.416 14.3114 167.372 14.5161C168.327 14.6981 169.044 14.8801 169.521 15.0621L168.771 18.4064C168.316 18.2016 167.736 18.0196 167.03 17.8604C166.325 17.6784 165.506 17.5874 164.573 17.5874C163.732 17.5874 163.049 17.7352 162.526 18.031C162.003 18.304 161.741 18.7362 161.741 19.3277C161.741 19.6235 161.786 19.8851 161.877 20.1126C161.991 20.3401 162.173 20.5562 162.423 20.761C162.674 20.943 163.004 21.1364 163.413 21.3411C163.823 21.5231 164.323 21.7165 164.915 21.9212C165.893 22.2852 166.723 22.6492 167.406 23.0132C168.088 23.3545 168.646 23.7526 169.078 24.2076C169.533 24.6399 169.863 25.1404 170.067 25.7091C170.272 26.2779 170.375 26.9604 170.375 27.7566C170.375 29.4629 169.738 30.7596 168.464 31.6469C167.212 32.5114 165.415 32.9436 163.072 32.9436C161.502 32.9436 160.239 32.8071 159.284 32.5341C158.328 32.2839 157.657 32.0791 157.271 31.9199L157.987 28.4732C158.601 28.7235 159.329 28.9624 160.171 29.1899C161.036 29.4174 162.014 29.5311 163.106 29.5311Z" fill="white"/>
</svg>
