<svg width="32" height="32" viewBox="0 0 32 32" fill="none" xmlns="http://www.w3.org/2000/svg">
<path d="M23.1239 15.7247C23.1526 11.7606 19.9929 8.42848 16.0001 8.25613C14.3628 8.16996 12.8116 8.65828 11.5477 9.49131C10.2838 8.65828 8.73263 8.16996 7.0953 8.25613C3.15996 8.39976 -0.0285325 11.7319 0.000192576 15.7247C0.000192576 16.9886 0.66087 19.344 2.35565 20.2345C2.2982 21.5559 2.03968 26.0083 4.85474 29.1393C5.97502 30.4032 7.95705 30.4319 9.10606 29.1967C9.53693 28.7371 9.91036 28.1052 10.0827 27.3009C10.2838 26.4679 10.4849 25.2327 10.6572 23.9113C10.8008 22.8772 12.2945 22.8772 12.4382 23.9113C12.6392 25.2039 12.8403 26.4391 13.0127 27.3009C13.185 28.1339 13.5584 28.7371 13.9893 29.1967C15.1383 30.4319 17.1204 30.4032 18.2406 29.1393C21.0557 26.037 20.7972 21.5559 20.7397 20.2345C22.4058 19.4302 23.1239 16.9886 23.1239 15.7247ZM4.62494 11.617C4.07916 12.0766 3.61956 12.6223 3.24613 13.2543C2.72908 14.1735 2.44183 15.2076 2.44183 16.2417C2.44183 16.5577 2.1833 16.8162 1.8386 16.8162C1.4939 16.8162 1.23537 16.5577 1.23537 16.213C1.23537 14.9778 1.58007 13.7139 2.1833 12.6511C2.61418 11.9042 3.15996 11.2435 3.82063 10.669C4.07916 10.468 4.45259 10.4967 4.65366 10.7552C4.91219 11.0425 4.88346 11.4159 4.62494 11.617ZM5.91757 10.6978L5.80267 10.7552C5.71649 10.8127 5.63032 10.8127 5.51542 10.8127C5.31434 10.8127 5.08454 10.6978 4.99836 10.4967C4.85474 10.2094 4.96964 9.83601 5.25689 9.69239L5.37179 9.63494C5.65904 9.49131 6.03247 9.60621 6.17609 9.89346C6.31972 10.1807 6.20482 10.5541 5.91757 10.6978Z" fill="white"/>
<path d="M17.58 1.33325C12.869 1.33325 8.67517 3.60254 6.06119 7.07827C6.37716 7.02082 6.72187 6.9921 7.06657 6.96337C7.18147 6.96337 7.32509 6.96337 7.43999 6.96337C7.78469 6.96337 8.1294 6.9921 8.4741 7.02082C8.53155 6.96337 8.61772 6.8772 8.67517 6.81975C11.0594 4.43556 14.2191 3.14293 17.58 3.14293C18.93 3.14293 20.2514 3.34401 21.5153 3.77489C21.7451 3.77489 23.1526 3.77489 23.1526 3.77489C23.1526 3.77489 23.1526 2.51098 23.1526 2.45353C21.4579 1.7354 19.562 1.33325 17.58 1.33325Z" fill="white"/>
<path d="M30.7648 9.89331C30.2478 9.89331 29.3573 9.89331 29.3573 9.89331C29.3573 9.89331 29.3573 11.0998 29.3573 11.2721C29.8743 12.6796 30.1616 14.1734 30.1616 15.6958C30.1616 19.0566 28.8402 22.2164 26.4848 24.6006C24.8474 26.2379 22.8079 27.3869 20.6248 27.904C20.2514 28.6221 19.7918 29.3115 19.1886 29.9434C19.1599 29.9722 19.1311 30.0009 19.1311 30.0296C26.3699 29.254 32 23.1356 32 15.7245C31.9713 13.6563 31.5404 11.6743 30.7648 9.89331Z" fill="white"/>
<path d="M30.42 4.95249H28.122V2.65448C28.122 2.22361 27.7773 1.87891 27.3465 1.87891H25.1633C24.7325 1.87891 24.3878 2.22361 24.3878 2.65448V4.95249H22.0898C21.6589 4.95249 21.3142 5.2972 21.3142 5.72807V7.91118C21.3142 8.34206 21.6589 8.68676 22.0898 8.68676H24.3878V10.9848C24.3878 11.4156 24.7325 11.7603 25.1633 11.7603H27.3465C27.7773 11.7603 28.122 11.4156 28.122 10.9848V8.68676H30.42C30.8509 8.68676 31.1956 8.34206 31.1956 7.91118V5.72807C31.1956 5.2972 30.8509 4.95249 30.42 4.95249ZM25.6229 4.63652C25.6229 4.83759 25.4793 4.98122 25.2782 4.98122C25.0772 4.98122 24.9335 4.83759 24.9335 4.63652V3.80349C24.9335 3.60241 25.0772 3.45879 25.2782 3.45879C25.4793 3.45879 25.6229 3.60241 25.6229 3.80349V4.63652ZM25.6229 2.79811C25.6229 2.97046 25.4793 3.14281 25.2782 3.14281C25.0772 3.14281 24.9335 2.99919 24.9335 2.79811V2.71193C24.9335 2.51086 25.0772 2.36723 25.2782 2.36723C25.4793 2.36723 25.6229 2.51086 25.6229 2.71193V2.79811Z" fill="white"/>
</svg>
