<svg width="1297" height="317" viewBox="0 0 1297 317" fill="none" xmlns="http://www.w3.org/2000/svg">
<rect width="1296" height="316" rx="20" fill="#216583"/>
<g opacity="0.3">
<path d="M158 0H152.439C134.99 54.8492 74.5898 97.2412 0 105.422V111C77.6578 102.633 140.359 57.8241 158 0Z" fill="#F8FAFC"/>
<path d="M158 0H152.439C134.99 54.8492 74.5898 97.2412 0 105.422V111C77.6578 102.633 140.359 57.8241 158 0Z" stroke="#F8FAFC"/>
</g>
<path d="M1296 230.48H1296.25V230.23V225V224.75H1296H1295.99H1295.99H1295.98H1295.98H1295.97H1295.97H1295.96H1295.95H1295.95H1295.94H1295.94H1295.93H1295.92H1295.92H1295.91H1295.91H1295.9H1295.9H1295.89H1295.88H1295.88H1295.87H1295.87H1295.86H1295.86H1295.85H1295.84H1295.84H1295.83H1295.83H1295.82H1295.82H1295.81H1295.8H1295.8H1295.79H1295.79H1295.78H1295.78H1295.77H1295.76H1295.76H1295.75H1295.75H1295.74H1295.74H1295.73H1295.72H1295.72H1295.71H1295.71H1295.7H1295.7H1295.69H1295.69H1295.68H1295.67H1295.67H1295.66H1295.66H1295.65H1295.65H1295.64H1295.63H1295.63H1295.62H1295.62H1295.61H1295.61H1295.6H1295.6H1295.59H1295.58H1295.58H1295.57H1295.57H1295.56H1295.56H1295.55H1295.55H1295.54H1295.53H1295.53H1295.52H1295.52H1295.51H1295.51H1295.5H1295.49H1295.49H1295.48H1295.48H1295.47H1295.47H1295.46H1295.46H1295.45H1295.44H1295.44H1295.43H1295.43H1295.42H1295.42H1295.41H1295.41H1295.4H1295.4H1295.39H1295.38H1295.38H1295.37H1295.37H1295.36H1295.36H1295.35H1295.35H1295.34H1295.33H1295.33H1295.32H1295.32H1295.31H1295.31H1295.3H1295.3H1295.29H1295.28H1295.28H1295.27H1295.27H1295.26H1295.26H1295.25H1295.25H1295.24H1295.24H1295.23H1295.22H1295.22H1295.21H1295.21H1295.2H1295.2H1295.19H1295.19H1295.18H1295.18H1295.17H1295.16H1295.16H1295.15H1295.15H1295.14H1295.14H1295.13H1295.13H1295.12H1295.12H1295.11H1295.1H1295.1H1295.09H1295.09H1295.08H1295.08H1295.07H1295.07H1295.06H1295.06H1295.05H1295.04H1295.04H1295.03H1295.03H1295.02H1295.02H1295.01H1295.01H1295H1295H1294.99H1294.98H1294.98H1294.97H1294.97H1294.96H1294.96H1294.95H1294.95H1294.94H1294.94H1294.93H1294.93H1294.92H1294.91H1294.91H1294.9H1294.9H1294.89H1294.89H1294.88H1294.88H1294.87H1294.87H1294.86H1294.85H1294.85H1294.84H1294.84H1294.83H1294.83H1294.82H1294.82H1294.81H1294.81H1294.8H1294.8H1294.79H1294.78H1294.78H1294.77H1294.77H1294.76H1294.76H1294.75H1294.75H1294.74H1294.74H1294.73H1294.73H1294.72H1294.71H1294.71H1294.7H1294.7H1294.69H1294.69H1294.68H1294.68H1294.67H1294.67H1294.66H1294.66H1294.65H1294.64H1294.64H1294.63H1294.63H1294.62H1294.62H1294.61H1294.61H1294.6H1294.6H1294.59H1294.59H1294.58H1294.57H1294.57H1294.56H1294.56H1294.55H1294.55H1294.54H1294.54H1294.53H1294.53H1294.52H1294.52H1294.51H1294.5H1294.5H1294.49H1294.49H1294.48H1294.48H1294.47H1294.47H1294.46H1294.46H1294.45H1294.45H1294.44H1294.43H1294.43H1294.42H1294.42H1294.41H1294.41H1294.4H1294.4H1294.39H1294.39H1294.38H1294.38H1294.37H1294.36H1294.36H1294.35H1294.35H1294.34H1294.34H1294.33H1294.33H1294.32H1294.32H1294.31H1294.3H1294.3H1294.29H1294.29H1294.28H1294.28H1294.27H1294.27H1294.26H1294.26H1294.25H1294.25H1294.24H1294.23H1294.23H1294.22H1294.22H1294.21H1294.21H1294.2H1294.2H1294.19H1294.19H1294.18H1294.17H1294.17H1294.16H1294.16H1294.15H1294.15H1294.14H1294.14H1294.13H1294.13H1294.12H1294.12H1294.11H1294.1H1294.1H1294.09H1294.09H1294.08H1294.08H1294.07H1294.07H1294.06H1294.06H1294.05H1294.04H1294.04H1294.03H1294.03H1294.02H1294.02H1294.01H1294.01H1294H1294H1293.99H1293.98H1293.98H1293.97H1293.97H1293.96H1293.96H1293.95H1293.95H1293.94H1293.94H1293.93H1293.92H1293.92H1293.91H1293.91H1293.9H1293.9H1293.89H1293.89H1293.88H1293.87H1293.87H1293.86H1293.86H1293.85H1293.85H1293.84H1293.84H1293.83H1293.83H1293.82H1293.81H1293.81H1293.8H1293.8H1293.79H1293.79H1293.78H1293.78H1293.77H1293.76H1293.76H1293.75H1293.75H1293.74H1293.74H1293.73H1293.73H1293.72H1293.71H1293.71H1293.7H1293.7H1293.69H1293.69H1293.68H1293.68H1293.67H1293.66H1293.66H1293.65H1293.65H1293.64H1293.64H1293.63H1293.63H1293.62H1293.61H1293.61H1293.6H1293.6H1293.59H1293.59H1293.58H1293.58H1293.57H1293.56H1293.56H1293.55H1293.55H1293.54H1293.54H1293.53H1293.52H1293.52H1293.51H1293.51H1293.5H1293.5H1293.49H1293.49H1293.48H1293.47H1293.47H1293.46H1293.46H1293.45H1293.45H1293.44H1293.43H1293.43H1293.42H1293.42H1293.41H1293.41H1293.4H1293.39H1293.39H1293.38H1293.38H1293.37H1293.37H1293.36H1293.35H1293.35H1293.34H1293.34H1293.33H1293.33H1293.32H1293.31H1293.31H1293.3H1293.3H1293.29H1293.29H1293.28H1293.27H1293.27H1293.26H1293.26H1293.25H1293.25H1293.24H1293.23H1293.23H1293.22H1293.22H1293.21H1293.21H1293.2H1293.19H1293.19H1293.18H1293.18H1293.17C1224.9 224.75 1167.06 263.501 1149.76 315.922L1149.65 316.25H1150H1154.39H1154.56L1154.62 316.083C1171.98 266.694 1227.47 230.48 1293.17 230.48H1293.18H1293.18H1293.19H1293.19H1293.2H1293.21H1293.21H1293.22H1293.22H1293.23H1293.23H1293.24H1293.25H1293.25H1293.26H1293.26H1293.27H1293.27H1293.28H1293.29H1293.29H1293.3H1293.3H1293.31H1293.31H1293.32H1293.33H1293.33H1293.34H1293.34H1293.35H1293.35H1293.36H1293.37H1293.37H1293.38H1293.38H1293.39H1293.39H1293.4H1293.41H1293.41H1293.42H1293.42H1293.43H1293.43H1293.44H1293.45H1293.45H1293.46H1293.46H1293.47H1293.47H1293.48H1293.49H1293.49H1293.5H1293.5H1293.51H1293.51H1293.52H1293.52H1293.53H1293.54H1293.54H1293.55H1293.55H1293.56H1293.56H1293.57H1293.58H1293.58H1293.59H1293.59H1293.6H1293.6H1293.61H1293.61H1293.62H1293.63H1293.63H1293.64H1293.64H1293.65H1293.65H1293.66H1293.66H1293.67H1293.68H1293.68H1293.69H1293.69H1293.7H1293.7H1293.71H1293.71H1293.72H1293.73H1293.73H1293.74H1293.74H1293.75H1293.75H1293.76H1293.76H1293.77H1293.78H1293.78H1293.79H1293.79H1293.8H1293.8H1293.81H1293.81H1293.82H1293.83H1293.83H1293.84H1293.84H1293.85H1293.85H1293.86H1293.86H1293.87H1293.87H1293.88H1293.89H1293.89H1293.9H1293.9H1293.91H1293.91H1293.92H1293.92H1293.93H1293.94H1293.94H1293.95H1293.95H1293.96H1293.96H1293.97H1293.97H1293.98H1293.98H1293.99H1294H1294H1294.01H1294.01H1294.02H1294.02H1294.03H1294.03H1294.04H1294.04H1294.05H1294.06H1294.06H1294.07H1294.07H1294.08H1294.08H1294.09H1294.09H1294.1H1294.1H1294.11H1294.12H1294.12H1294.13H1294.13H1294.14H1294.14H1294.15H1294.15H1294.16H1294.16H1294.17H1294.17H1294.18H1294.19H1294.19H1294.2H1294.2H1294.21H1294.21H1294.22H1294.22H1294.23H1294.23H1294.24H1294.25H1294.25H1294.26H1294.26H1294.27H1294.27H1294.28H1294.28H1294.29H1294.29H1294.3H1294.3H1294.31H1294.32H1294.32H1294.33H1294.33H1294.34H1294.34H1294.35H1294.35H1294.36H1294.36H1294.37H1294.38H1294.38H1294.39H1294.39H1294.4H1294.4H1294.41H1294.41H1294.42H1294.42H1294.43H1294.43H1294.44H1294.45H1294.45H1294.46H1294.46H1294.47H1294.47H1294.48H1294.48H1294.49H1294.49H1294.5H1294.5H1294.51H1294.52H1294.52H1294.53H1294.53H1294.54H1294.54H1294.55H1294.55H1294.56H1294.56H1294.57H1294.57H1294.58H1294.59H1294.59H1294.6H1294.6H1294.61H1294.61H1294.62H1294.62H1294.63H1294.63H1294.64H1294.64H1294.65H1294.66H1294.66H1294.67H1294.67H1294.68H1294.68H1294.69H1294.69H1294.7H1294.7H1294.71H1294.71H1294.72H1294.73H1294.73H1294.74H1294.74H1294.75H1294.75H1294.76H1294.76H1294.77H1294.77H1294.78H1294.78H1294.79H1294.8H1294.8H1294.81H1294.81H1294.82H1294.82H1294.83H1294.83H1294.84H1294.84H1294.85H1294.85H1294.86H1294.87H1294.87H1294.88H1294.88H1294.89H1294.89H1294.9H1294.9H1294.91H1294.91H1294.92H1294.93H1294.93H1294.94H1294.94H1294.95H1294.95H1294.96H1294.96H1294.97H1294.97H1294.98H1294.98H1294.99H1295H1295H1295.01H1295.01H1295.02H1295.02H1295.03H1295.03H1295.04H1295.04H1295.05H1295.06H1295.06H1295.07H1295.07H1295.08H1295.08H1295.09H1295.09H1295.1H1295.1H1295.11H1295.12H1295.12H1295.13H1295.13H1295.14H1295.14H1295.15H1295.15H1295.16H1295.16H1295.17H1295.18H1295.18H1295.19H1295.19H1295.2H1295.2H1295.21H1295.21H1295.22H1295.22H1295.23H1295.24H1295.24H1295.25H1295.25H1295.26H1295.26H1295.27H1295.27H1295.28H1295.28H1295.29H1295.3H1295.3H1295.31H1295.31H1295.32H1295.32H1295.33H1295.33H1295.34H1295.35H1295.35H1295.36H1295.36H1295.37H1295.37H1295.38H1295.38H1295.39H1295.4H1295.4H1295.41H1295.41H1295.42H1295.42H1295.43H1295.43H1295.44H1295.44H1295.45H1295.46H1295.46H1295.47H1295.47H1295.48H1295.48H1295.49H1295.49H1295.5H1295.51H1295.51H1295.52H1295.52H1295.53H1295.53H1295.54H1295.55H1295.55H1295.56H1295.56H1295.57H1295.57H1295.58H1295.58H1295.59H1295.6H1295.6H1295.61H1295.61H1295.62H1295.62H1295.63H1295.63H1295.64H1295.65H1295.65H1295.66H1295.66H1295.67H1295.67H1295.68H1295.69H1295.69H1295.7H1295.7H1295.71H1295.71H1295.72H1295.72H1295.73H1295.74H1295.74H1295.75H1295.75H1295.76H1295.76H1295.77H1295.78H1295.78H1295.79H1295.79H1295.8H1295.8H1295.81H1295.82H1295.82H1295.83H1295.83H1295.84H1295.84H1295.85H1295.86H1295.86H1295.87H1295.87H1295.88H1295.88H1295.89H1295.9H1295.9H1295.91H1295.91H1295.92H1295.92H1295.93H1295.94H1295.94H1295.95H1295.95H1295.96H1295.97H1295.97H1295.98H1295.98H1295.99H1295.99H1296Z" fill="white" stroke="white" stroke-width="0.5"/>
</svg>
