<svg width="32" height="32" viewBox="0 0 32 32" fill="none" xmlns="http://www.w3.org/2000/svg">
<path d="M20 12L14.6667 17.3333L12 14.6667M26.6667 8.2666V13.5531C26.6667 22.3108 20.0426 26.2371 17.2344 27.5082C16.9367 27.643 16.7888 27.7104 16.4518 27.7683C16.2393 27.8048 15.7617 27.8048 15.5492 27.7683C15.2122 27.7104 15.063 27.643 14.7653 27.5082C11.9571 26.2371 5.33333 22.3107 5.33333 13.5531V8.2666C5.33333 6.77313 5.33333 6.02649 5.62398 5.45605C5.87964 4.95429 6.28729 4.54631 6.78906 4.29065C7.35949 4 8.10678 4 9.60026 4H22.4003C23.8937 4 24.6399 4 25.2104 4.29065C25.7121 4.54631 26.1206 4.95429 26.3763 5.45605C26.6669 6.02649 26.6667 6.77313 26.6667 8.2666Z" stroke="#18181B" stroke-width="2" stroke-linecap="round" stroke-linejoin="round"/>
</svg>
