<svg width="624" height="160" viewBox="0 0 624 160" fill="none" xmlns="http://www.w3.org/2000/svg">
<rect width="176" height="160" rx="16" fill="white"/>
<path d="M83.0059 32.5144C82.3984 30.9958 80.9276 30 79.292 30H73.7895C71.6966 30 70 31.6967 70 33.7896C70 51.5789 84.4216 65.9999 102.211 65.9999C104.304 65.9999 106 64.3035 106 62.2106L106 56.708C106 55.0724 105.004 53.6017 103.485 52.9943L98.2143 50.8858C96.8501 50.3401 95.2971 50.586 94.1684 51.5266L92.8062 52.6614C91.2168 53.9859 88.88 53.88 87.4171 52.4171L83.5827 48.583C82.1199 47.1201 82.0144 44.7831 83.3389 43.1938L84.4736 41.8319C85.4142 40.7033 85.66 39.1499 85.1144 37.7857L83.0059 32.5144Z" stroke="#52525B" stroke-width="3" stroke-linecap="round" stroke-linejoin="round"/>
<path d="M67.2298 98.326H64.8392C64.771 97.9339 64.6453 97.5866 64.4621 97.2841C64.2789 96.9773 64.0509 96.7173 63.7781 96.5043C63.5054 96.2912 63.1943 96.1314 62.8449 96.0249C62.4997 95.9141 62.1269 95.8587 61.7263 95.8587C61.0146 95.8587 60.384 96.0376 59.8343 96.3956C59.2845 96.7493 58.8541 97.2692 58.5431 97.9553C58.232 98.6371 58.0764 99.4702 58.0764 100.455C58.0764 101.456 58.232 102.3 58.5431 102.986C58.8584 103.668 59.2888 104.183 59.8343 104.533C60.384 104.878 61.0125 105.05 61.7199 105.05C62.1119 105.05 62.4784 104.999 62.8193 104.897C63.1645 104.79 63.4735 104.635 63.7462 104.43C64.0232 104.226 64.2554 103.974 64.4429 103.676C64.6347 103.378 64.7668 103.037 64.8392 102.653L67.2298 102.666C67.1404 103.288 66.9465 103.872 66.6482 104.418C66.3541 104.963 65.9685 105.445 65.4912 105.862C65.0139 106.276 64.4557 106.599 63.8165 106.834C63.1773 107.064 62.4678 107.179 61.6879 107.179C60.5374 107.179 59.5104 106.913 58.607 106.38C57.7036 105.847 56.9919 105.078 56.472 104.072C55.9521 103.067 55.6922 101.861 55.6922 100.455C55.6922 99.044 55.9543 97.8381 56.4784 96.8366C57.0026 95.831 57.7164 95.0618 58.6198 94.5291C59.5232 93.9964 60.5459 93.7301 61.6879 93.7301C62.4166 93.7301 63.0942 93.8324 63.7206 94.0369C64.347 94.2415 64.9053 94.5419 65.3953 94.9382C65.8854 95.3303 66.2881 95.8118 66.6034 96.3828C66.923 96.9496 67.1318 97.5973 67.2298 98.326ZM72.1246 107.198C71.5024 107.198 70.942 107.087 70.4434 106.866C69.9491 106.64 69.5571 106.308 69.2673 105.869C68.9818 105.43 68.839 104.888 68.839 104.245C68.839 103.691 68.9413 103.233 69.1459 102.871C69.3504 102.509 69.6295 102.219 69.9832 102.001C70.3369 101.784 70.7354 101.62 71.1785 101.509C71.626 101.394 72.0883 101.311 72.5656 101.26C73.1409 101.2 73.6075 101.147 73.9655 101.1C74.3234 101.049 74.5834 100.972 74.7453 100.87C74.9115 100.763 74.9946 100.599 74.9946 100.378V100.339C74.9946 99.858 74.8518 99.4851 74.5663 99.2209C74.2808 98.9567 73.8696 98.8246 73.3327 98.8246C72.7659 98.8246 72.3163 98.9482 71.9839 99.1953C71.6558 99.4425 71.4342 99.7344 71.3192 100.071L69.1586 99.7642C69.3291 99.1676 69.6104 98.669 70.0024 98.2685C70.3944 97.8636 70.8738 97.5611 71.4406 97.3608C72.0074 97.1562 72.6338 97.054 73.3199 97.054C73.7929 97.054 74.2638 97.1094 74.7325 97.2202C75.2013 97.331 75.6295 97.5142 76.0173 97.7699C76.4051 98.0213 76.7162 98.3643 76.9506 98.799C77.1892 99.2337 77.3085 99.777 77.3085 100.429V107H75.0841V105.651H75.0074C74.8667 105.924 74.6686 106.18 74.4129 106.418C74.1615 106.653 73.844 106.842 73.4605 106.987C73.0812 107.128 72.6359 107.198 72.1246 107.198ZM72.7254 105.498C73.1899 105.498 73.5926 105.406 73.9335 105.223C74.2744 105.036 74.5365 104.788 74.7197 104.482C74.9072 104.175 75.001 103.84 75.001 103.478V102.321C74.9285 102.381 74.805 102.436 74.6302 102.487C74.4598 102.538 74.268 102.583 74.055 102.621C73.8419 102.66 73.6309 102.694 73.4221 102.724C73.2133 102.754 73.0322 102.779 72.8788 102.8C72.5336 102.847 72.2247 102.924 71.952 103.031C71.6792 103.137 71.464 103.286 71.3064 103.478C71.1487 103.665 71.0699 103.908 71.0699 104.207C71.0699 104.633 71.2254 104.955 71.5365 105.172C71.8476 105.389 72.2439 105.498 72.7254 105.498ZM81.9491 93.9091V107H79.6352V93.9091H81.9491ZM86.6425 93.9091V107H84.3286V93.9091H86.6425ZM98.4598 97.1818V98.9716H92.6558V97.1818H98.4598ZM94.1068 107V96.255C94.1068 95.5945 94.2432 95.0447 94.5159 94.6058C94.7929 94.1669 95.1636 93.8388 95.6281 93.6214C96.0926 93.4041 96.6082 93.2955 97.175 93.2955C97.5756 93.2955 97.9314 93.3274 98.2425 93.3913C98.5535 93.4553 98.7836 93.5128 98.9328 93.5639L98.4726 95.3537C98.3746 95.3239 98.251 95.294 98.1018 95.2642C97.9527 95.2301 97.7865 95.2131 97.6032 95.2131C97.1729 95.2131 96.8682 95.3175 96.6892 95.5263C96.5145 95.7308 96.4271 96.0249 96.4271 96.4084V107H94.1068ZM104.185 107.192C103.227 107.192 102.396 106.981 101.693 106.559C100.989 106.137 100.444 105.547 100.056 104.788C99.6727 104.03 99.4809 103.143 99.4809 102.129C99.4809 101.115 99.6727 100.227 100.056 99.4638C100.444 98.701 100.989 98.1087 101.693 97.6868C102.396 97.2649 103.227 97.054 104.185 97.054C105.144 97.054 105.975 97.2649 106.678 97.6868C107.381 98.1087 107.925 98.701 108.308 99.4638C108.696 100.227 108.89 101.115 108.89 102.129C108.89 103.143 108.696 104.03 108.308 104.788C107.925 105.547 107.381 106.137 106.678 106.559C105.975 106.981 105.144 107.192 104.185 107.192ZM104.198 105.338C104.718 105.338 105.153 105.195 105.502 104.91C105.852 104.62 106.112 104.232 106.282 103.746C106.457 103.261 106.544 102.719 106.544 102.123C106.544 101.522 106.457 100.979 106.282 100.493C106.112 100.003 105.852 99.6129 105.502 99.3232C105.153 99.0334 104.718 98.8885 104.198 98.8885C103.666 98.8885 103.222 99.0334 102.869 99.3232C102.519 99.6129 102.257 100.003 102.082 100.493C101.912 100.979 101.827 101.522 101.827 102.123C101.827 102.719 101.912 103.261 102.082 103.746C102.257 104.232 102.519 104.62 102.869 104.91C103.222 105.195 103.666 105.338 104.198 105.338ZM110.854 107V97.1818H113.098V98.8182H113.2C113.379 98.2514 113.686 97.8146 114.12 97.5078C114.559 97.1967 115.06 97.0412 115.622 97.0412C115.75 97.0412 115.893 97.0476 116.051 97.0604C116.213 97.0689 116.347 97.0838 116.453 97.1051V99.2337C116.355 99.1996 116.2 99.1697 115.987 99.1442C115.778 99.1143 115.576 99.0994 115.38 99.0994C114.958 99.0994 114.578 99.1911 114.242 99.3743C113.909 99.5533 113.647 99.8026 113.456 100.122C113.264 100.442 113.168 100.81 113.168 101.228V107H110.854ZM36.5552 131.198C35.9331 131.198 35.3727 131.087 34.8741 130.866C34.3798 130.64 33.9877 130.308 33.698 129.869C33.4125 129.43 33.2697 128.888 33.2697 128.245C33.2697 127.691 33.372 127.233 33.5765 126.871C33.7811 126.509 34.0602 126.219 34.4139 126.001C34.7676 125.784 35.166 125.62 35.6092 125.509C36.0566 125.394 36.519 125.311 36.9963 125.26C37.5716 125.2 38.0382 125.147 38.3961 125.1C38.7541 125.049 39.014 124.972 39.176 124.87C39.3422 124.763 39.4252 124.599 39.4252 124.378V124.339C39.4252 123.858 39.2825 123.485 38.997 123.221C38.7115 122.957 38.3002 122.825 37.7633 122.825C37.1966 122.825 36.747 122.948 36.4146 123.195C36.0865 123.442 35.8649 123.734 35.7498 124.071L33.5893 123.764C33.7598 123.168 34.041 122.669 34.4331 122.268C34.8251 121.864 35.3045 121.561 35.8713 121.361C36.438 121.156 37.0645 121.054 37.7505 121.054C38.2235 121.054 38.6944 121.109 39.1632 121.22C39.6319 121.331 40.0602 121.514 40.448 121.77C40.8358 122.021 41.1468 122.364 41.3812 122.799C41.6199 123.234 41.7392 123.777 41.7392 124.429V131H39.5147V129.651H39.438C39.2974 129.924 39.0993 130.18 38.8436 130.418C38.5922 130.653 38.2747 130.842 37.8912 130.987C37.5119 131.128 37.0666 131.198 36.5552 131.198ZM37.1561 129.498C37.6206 129.498 38.0233 129.406 38.3642 129.223C38.7051 129.036 38.9672 128.788 39.1504 128.482C39.3379 128.175 39.4316 127.84 39.4316 127.478V126.321C39.3592 126.381 39.2356 126.436 39.0609 126.487C38.8904 126.538 38.6987 126.583 38.4856 126.621C38.2725 126.66 38.0616 126.694 37.8528 126.724C37.644 126.754 37.4629 126.779 37.3095 126.8C36.9643 126.847 36.6554 126.924 36.3826 127.031C36.1099 127.137 35.8947 127.286 35.737 127.478C35.5794 127.665 35.5005 127.908 35.5005 128.207C35.5005 128.633 35.6561 128.955 35.9672 129.172C36.2782 129.389 36.6745 129.498 37.1561 129.498ZM44.0659 134.682V121.182H46.3414V122.805H46.4757C46.595 122.567 46.7633 122.313 46.9806 122.045C47.198 121.772 47.492 121.54 47.8627 121.348C48.2335 121.152 48.7065 121.054 49.2818 121.054C50.0403 121.054 50.7243 121.248 51.3336 121.636C51.9473 122.019 52.4331 122.588 52.791 123.342C53.1532 124.092 53.3343 125.013 53.3343 126.104C53.3343 127.182 53.1575 128.098 52.8038 128.852C52.4501 129.607 51.9686 130.182 51.3592 130.578C50.7498 130.974 50.0595 131.173 49.2882 131.173C48.7257 131.173 48.2591 131.079 47.8883 130.891C47.5176 130.704 47.2193 130.478 46.9934 130.214C46.7718 129.945 46.5993 129.692 46.4757 129.453H46.3798V134.682H44.0659ZM46.335 126.091C46.335 126.726 46.4245 127.282 46.6035 127.759C46.7868 128.237 47.0488 128.609 47.3897 128.878C47.7349 129.142 48.1525 129.274 48.6426 129.274C49.1539 129.274 49.5822 129.138 49.9274 128.865C50.2725 128.588 50.5325 128.211 50.7072 127.734C50.8862 127.252 50.9757 126.705 50.9757 126.091C50.9757 125.482 50.8883 124.94 50.7136 124.467C50.5389 123.994 50.2789 123.624 49.9338 123.355C49.5886 123.087 49.1582 122.952 48.6426 122.952C48.1483 122.952 47.7285 123.082 47.3833 123.342C47.0382 123.602 46.7761 123.967 46.5971 124.435C46.4224 124.904 46.335 125.456 46.335 126.091ZM55.3159 134.682V121.182H57.5914V122.805H57.7257C57.845 122.567 58.0133 122.313 58.2306 122.045C58.448 121.772 58.742 121.54 59.1127 121.348C59.4835 121.152 59.9565 121.054 60.5318 121.054C61.2903 121.054 61.9743 121.248 62.5836 121.636C63.1973 122.019 63.6831 122.588 64.041 123.342C64.4032 124.092 64.5843 125.013 64.5843 126.104C64.5843 127.182 64.4075 128.098 64.0538 128.852C63.7001 129.607 63.2186 130.182 62.6092 130.578C61.9998 130.974 61.3095 131.173 60.5382 131.173C59.9757 131.173 59.5091 131.079 59.1383 130.891C58.7676 130.704 58.4693 130.478 58.2434 130.214C58.0218 129.945 57.8493 129.692 57.7257 129.453H57.6298V134.682H55.3159ZM57.585 126.091C57.585 126.726 57.6745 127.282 57.8535 127.759C58.0368 128.237 58.2988 128.609 58.6397 128.878C58.9849 129.142 59.4025 129.274 59.8926 129.274C60.4039 129.274 60.8322 129.138 61.1774 128.865C61.5225 128.588 61.7825 128.211 61.9572 127.734C62.1362 127.252 62.2257 126.705 62.2257 126.091C62.2257 125.482 62.1383 124.94 61.9636 124.467C61.7889 123.994 61.5289 123.624 61.1838 123.355C60.8386 123.087 60.4082 122.952 59.8926 122.952C59.3983 122.952 58.9785 123.082 58.6333 123.342C58.2882 123.602 58.0261 123.967 57.8471 124.435C57.6724 124.904 57.585 125.456 57.585 126.091ZM70.8485 131.192C69.8897 131.192 69.0588 130.981 68.3556 130.559C67.6525 130.137 67.1071 129.547 66.7193 128.788C66.3358 128.03 66.144 127.143 66.144 126.129C66.144 125.115 66.3358 124.227 66.7193 123.464C67.1071 122.701 67.6525 122.109 68.3556 121.687C69.0588 121.265 69.8897 121.054 70.8485 121.054C71.8074 121.054 72.6383 121.265 73.3414 121.687C74.0446 122.109 74.5879 122.701 74.9714 123.464C75.3592 124.227 75.5531 125.115 75.5531 126.129C75.5531 127.143 75.3592 128.03 74.9714 128.788C74.5879 129.547 74.0446 130.137 73.3414 130.559C72.6383 130.981 71.8074 131.192 70.8485 131.192ZM70.8613 129.338C71.3812 129.338 71.8159 129.195 72.1653 128.91C72.5147 128.62 72.7747 128.232 72.9451 127.746C73.1199 127.261 73.2072 126.719 73.2072 126.123C73.2072 125.522 73.1199 124.979 72.9451 124.493C72.7747 124.003 72.5147 123.613 72.1653 123.323C71.8159 123.033 71.3812 122.888 70.8613 122.888C70.3287 122.888 69.8855 123.033 69.5318 123.323C69.1824 123.613 68.9203 124.003 68.7456 124.493C68.5751 124.979 68.4899 125.522 68.4899 126.123C68.4899 126.719 68.5751 127.261 68.7456 127.746C68.9203 128.232 69.1824 128.62 69.5318 128.91C69.8855 129.195 70.3287 129.338 70.8613 129.338ZM77.517 131V121.182H79.831V131H77.517ZM78.6804 119.788C78.3139 119.788 77.9986 119.667 77.7344 119.424C77.4702 119.177 77.3381 118.881 77.3381 118.536C77.3381 118.186 77.4702 117.89 77.7344 117.647C77.9986 117.4 78.3139 117.276 78.6804 117.276C79.0511 117.276 79.3665 117.4 79.6264 117.647C79.8906 117.89 80.0227 118.186 80.0227 118.536C80.0227 118.881 79.8906 119.177 79.6264 119.424C79.3665 119.667 79.0511 119.788 78.6804 119.788ZM84.5243 125.247V131H82.2104V121.182H84.4221V122.85H84.5371C84.763 122.3 85.123 121.864 85.6174 121.54C86.1159 121.216 86.7317 121.054 87.4647 121.054C88.1422 121.054 88.7324 121.199 89.2353 121.489C89.7424 121.778 90.1344 122.198 90.4114 122.748C90.6926 123.298 90.8311 123.964 90.8269 124.749V131H88.513V125.107C88.513 124.45 88.3425 123.937 88.0016 123.566C87.665 123.195 87.1983 123.01 86.6017 123.01C86.1969 123.01 85.8368 123.099 85.5215 123.278C85.2104 123.453 84.9654 123.707 84.7864 124.039C84.6117 124.371 84.5243 124.774 84.5243 125.247ZM98.0819 121.182V122.972H92.4377V121.182H98.0819ZM93.8311 118.83H96.1451V128.047C96.1451 128.358 96.1919 128.597 96.2857 128.763C96.3837 128.925 96.5115 129.036 96.6692 129.095C96.8269 129.155 97.0016 129.185 97.1934 129.185C97.3382 129.185 97.4703 129.174 97.5897 129.153C97.7132 129.131 97.807 129.112 97.8709 129.095L98.2608 130.904C98.1373 130.947 97.9604 130.994 97.7303 131.045C97.5044 131.096 97.2275 131.126 96.8993 131.134C96.3198 131.151 95.7978 131.064 95.3333 130.872C94.8688 130.676 94.5002 130.374 94.2275 129.964C93.959 129.555 93.8269 129.044 93.8311 128.43V118.83ZM100.017 131V121.182H102.229V122.85H102.344C102.548 122.288 102.887 121.849 103.36 121.533C103.833 121.214 104.398 121.054 105.054 121.054C105.719 121.054 106.279 121.216 106.735 121.54C107.195 121.859 107.519 122.296 107.707 122.85H107.809C108.026 122.305 108.393 121.87 108.908 121.546C109.428 121.218 110.044 121.054 110.756 121.054C111.659 121.054 112.396 121.339 112.967 121.911C113.538 122.482 113.824 123.315 113.824 124.41V131H111.504V124.768C111.504 124.158 111.342 123.713 111.018 123.432C110.694 123.146 110.298 123.004 109.829 123.004C109.271 123.004 108.834 123.178 108.518 123.528C108.207 123.873 108.052 124.322 108.052 124.876V131H105.783V124.672C105.783 124.165 105.629 123.76 105.322 123.457C105.02 123.155 104.624 123.004 104.134 123.004C103.801 123.004 103.499 123.089 103.226 123.259C102.953 123.425 102.736 123.662 102.574 123.969C102.412 124.271 102.331 124.625 102.331 125.03V131H100.017ZM120.518 131.192C119.534 131.192 118.683 130.987 117.968 130.578C117.256 130.165 116.708 129.581 116.325 128.827C115.941 128.068 115.749 127.175 115.749 126.148C115.749 125.138 115.941 124.252 116.325 123.489C116.713 122.722 117.254 122.126 117.948 121.7C118.643 121.269 119.459 121.054 120.396 121.054C121.002 121.054 121.573 121.152 122.11 121.348C122.651 121.54 123.128 121.838 123.541 122.243C123.959 122.648 124.287 123.163 124.526 123.79C124.764 124.412 124.884 125.153 124.884 126.014V126.724H116.836V125.164H122.666C122.661 124.721 122.566 124.327 122.378 123.982C122.191 123.632 121.928 123.357 121.592 123.157C121.259 122.957 120.872 122.857 120.428 122.857C119.955 122.857 119.54 122.972 119.182 123.202C118.824 123.428 118.545 123.726 118.345 124.097C118.149 124.463 118.048 124.866 118.044 125.305V126.666C118.044 127.237 118.149 127.727 118.357 128.136C118.566 128.541 118.858 128.852 119.233 129.07C119.608 129.283 120.047 129.389 120.55 129.389C120.887 129.389 121.191 129.342 121.464 129.249C121.737 129.151 121.973 129.008 122.173 128.82C122.374 128.633 122.525 128.401 122.627 128.124L124.788 128.366C124.651 128.937 124.392 129.436 124.008 129.862C123.629 130.284 123.143 130.612 122.551 130.847C121.958 131.077 121.281 131.192 120.518 131.192ZM129.155 125.247V131H126.841V121.182H129.053V122.85H129.168C129.394 122.3 129.754 121.864 130.248 121.54C130.747 121.216 131.363 121.054 132.096 121.054C132.773 121.054 133.363 121.199 133.866 121.489C134.373 121.778 134.765 122.198 135.042 122.748C135.324 123.298 135.462 123.964 135.458 124.749V131H133.144V125.107C133.144 124.45 132.973 123.937 132.632 123.566C132.296 123.195 131.829 123.01 131.233 123.01C130.828 123.01 130.468 123.099 130.152 123.278C129.841 123.453 129.596 123.707 129.417 124.039C129.243 124.371 129.155 124.774 129.155 125.247ZM142.713 121.182V122.972H137.069V121.182H142.713ZM138.462 118.83H140.776V128.047C140.776 128.358 140.823 128.597 140.917 128.763C141.015 128.925 141.142 129.036 141.3 129.095C141.458 129.155 141.632 129.185 141.824 129.185C141.969 129.185 142.101 129.174 142.221 129.153C142.344 129.131 142.438 129.112 142.502 129.095L142.892 130.904C142.768 130.947 142.591 130.994 142.361 131.045C142.135 131.096 141.858 131.126 141.53 131.134C140.951 131.151 140.429 131.064 139.964 130.872C139.5 130.676 139.131 130.374 138.858 129.964C138.59 129.555 138.458 129.044 138.462 128.43V118.83Z" fill="#52525B"/>
<rect x="224" width="176" height="160" rx="16" fill="white"/>
<path d="M296 38.5C295.172 38.5 294.5 39.1716 294.5 40C294.5 40.8284 295.172 41.5 296 41.5V38.5ZM328 41.5C328.828 41.5 329.5 40.8284 329.5 40C329.5 39.1716 328.828 38.5 328 38.5V41.5ZM298.184 63.564L298.865 62.2275L298.184 63.564ZM296.436 61.8161L295.099 62.497H295.099L296.436 61.8161ZM327.564 61.8161L326.228 61.1351L327.564 61.8161ZM325.816 63.564L325.135 62.2275L325.816 63.564ZM325.816 32.436L326.497 31.0995L325.816 32.436ZM327.564 34.1841L326.228 34.8651L327.564 34.1841ZM298.184 32.436L298.865 33.7725L298.184 32.436ZM296.436 34.1841L297.772 34.8651L296.436 34.1841ZM319.061 49.0607C319.646 48.4749 319.646 47.5251 319.061 46.9393C318.475 46.3536 317.525 46.3536 316.939 46.9393L319.061 49.0607ZM310 56L308.939 57.0607C309.525 57.6464 310.475 57.6464 311.061 57.0607L310 56ZM307.061 50.9393C306.475 50.3536 305.525 50.3536 304.939 50.9393C304.354 51.5251 304.354 52.4749 304.939 53.0607L307.061 50.9393ZM321.5 28C321.5 27.1716 320.828 26.5 320 26.5C319.172 26.5 318.5 27.1716 318.5 28H321.5ZM318.5 32C318.5 32.8284 319.172 33.5 320 33.5C320.828 33.5 321.5 32.8284 321.5 32H318.5ZM305.5 28C305.5 27.1716 304.828 26.5 304 26.5C303.172 26.5 302.5 27.1716 302.5 28H305.5ZM302.5 32C302.5 32.8284 303.172 33.5 304 33.5C304.828 33.5 305.5 32.8284 305.5 32H302.5ZM296 41.5H328V38.5H296V41.5ZM302.4 33.5H321.6V30.5H302.4V33.5ZM326.5 38.3999V57.5999H329.5V38.3999H326.5ZM321.6 62.5H302.4V65.5H321.6V62.5ZM297.5 57.5999V38.3999H294.5V57.5999H297.5ZM302.4 62.5C301.256 62.5 300.487 62.4988 299.895 62.4505C299.32 62.4035 299.046 62.3197 298.865 62.2275L297.503 64.9005C298.177 65.2442 298.891 65.3784 299.651 65.4405C300.393 65.5012 301.305 65.5 302.4 65.5V62.5ZM294.5 57.5999C294.5 58.6953 294.499 59.607 294.559 60.3493C294.622 61.1091 294.756 61.8225 295.099 62.497L297.772 61.1351C297.68 60.954 297.596 60.6794 297.55 60.1051C297.501 59.5132 297.5 58.7448 297.5 57.5999H294.5ZM298.865 62.2275C298.394 61.9879 298.012 61.6057 297.772 61.1351L295.099 62.497C295.627 63.5317 296.467 64.3731 297.503 64.9005L298.865 62.2275ZM326.5 57.5999C326.5 58.7449 326.499 59.5134 326.451 60.1053C326.404 60.6797 326.32 60.9541 326.228 61.1351L328.901 62.497C329.245 61.8223 329.379 61.1088 329.441 60.3491C329.501 59.6069 329.5 58.6951 329.5 57.5999H326.5ZM321.6 65.5C322.696 65.5 323.607 65.5012 324.349 65.4405C325.109 65.3784 325.822 65.2441 326.497 64.9005L325.135 62.2275C324.953 62.3198 324.679 62.4035 324.105 62.4505C323.513 62.4988 322.745 62.5 321.6 62.5V65.5ZM326.228 61.1351C325.989 61.6047 325.606 61.9874 325.135 62.2275L326.497 64.9005C327.531 64.3736 328.373 63.5327 328.901 62.497L326.228 61.1351ZM321.6 33.5C322.745 33.5 323.513 33.5012 324.105 33.5495C324.679 33.5964 324.953 33.6802 325.135 33.7725L326.497 31.0995C325.822 30.7558 325.109 30.6216 324.349 30.5595C323.607 30.4988 322.696 30.5 321.6 30.5V33.5ZM329.5 38.3999C329.5 37.3047 329.501 36.393 329.441 35.6509C329.379 34.8912 329.245 34.1778 328.901 33.5031L326.228 34.8651C326.32 35.046 326.404 35.3204 326.451 35.8947C326.499 36.4865 326.5 37.2549 326.5 38.3999H329.5ZM325.135 33.7725C325.606 34.0125 325.989 34.3953 326.228 34.8651L328.901 33.5031C328.373 32.4676 327.531 31.6265 326.497 31.0995L325.135 33.7725ZM302.4 30.5C301.305 30.5 300.393 30.4988 299.651 30.5595C298.891 30.6215 298.177 30.7557 297.503 31.0995L298.865 33.7725C299.046 33.6802 299.32 33.5964 299.895 33.5495C300.487 33.5012 301.256 33.5 302.4 33.5V30.5ZM297.5 38.3999C297.5 37.255 297.501 36.4867 297.55 35.8949C297.596 35.3207 297.68 35.0462 297.772 34.8651L295.099 33.5031C294.756 34.1776 294.622 34.8909 294.559 35.6506C294.499 36.3929 294.5 37.3046 294.5 38.3999H297.5ZM297.503 31.0995C296.467 31.627 295.627 32.4686 295.099 33.5031L297.772 34.8651C298.012 34.3943 298.395 34.012 298.865 33.7725L297.503 31.0995ZM316.939 46.9393L308.939 54.9393L311.061 57.0607L319.061 49.0607L316.939 46.9393ZM311.061 54.9393L307.061 50.9393L304.939 53.0607L308.939 57.0607L311.061 54.9393ZM318.5 28V32H321.5V28H318.5ZM302.5 28V32H305.5V28H302.5Z" fill="#52525B"/>
<path d="M299.113 98.0895C299.006 97.7443 298.859 97.4354 298.672 97.1626C298.489 96.8857 298.267 96.6491 298.007 96.4531C297.751 96.2571 297.457 96.1101 297.125 96.0121C296.793 95.9098 296.43 95.8587 296.038 95.8587C295.335 95.8587 294.709 96.0355 294.159 96.3892C293.609 96.7429 293.177 97.2628 292.861 97.9489C292.55 98.6307 292.395 99.4616 292.395 100.442C292.395 101.43 292.55 102.268 292.861 102.954C293.172 103.64 293.605 104.162 294.159 104.52C294.713 104.874 295.356 105.05 296.089 105.05C296.754 105.05 297.329 104.923 297.815 104.667C298.305 104.411 298.682 104.049 298.947 103.58C299.211 103.107 299.343 102.553 299.343 101.918L299.88 102.001H296.326V100.148H301.638V101.72C301.638 102.841 301.399 103.81 300.922 104.629C300.445 105.447 299.788 106.077 298.953 106.521C298.118 106.96 297.159 107.179 296.077 107.179C294.871 107.179 293.812 106.908 292.9 106.367C291.992 105.822 291.283 105.048 290.771 104.047C290.264 103.041 290.011 101.848 290.011 100.467C290.011 99.4105 290.16 98.4666 290.458 97.6357C290.761 96.8047 291.182 96.0994 291.724 95.5199C292.265 94.9361 292.9 94.4929 293.628 94.1903C294.357 93.8835 295.15 93.7301 296.006 93.7301C296.731 93.7301 297.406 93.8366 298.033 94.0497C298.659 94.2585 299.215 94.5568 299.701 94.9446C300.191 95.3324 300.594 95.7926 300.909 96.3253C301.224 96.858 301.431 97.446 301.529 98.0895H299.113ZM308.175 107.192C307.191 107.192 306.341 106.987 305.625 106.578C304.913 106.165 304.366 105.581 303.982 104.827C303.598 104.068 303.407 103.175 303.407 102.148C303.407 101.138 303.598 100.252 303.982 99.4893C304.37 98.7223 304.911 98.1257 305.606 97.6996C306.3 97.2692 307.116 97.054 308.054 97.054C308.659 97.054 309.23 97.152 309.767 97.348C310.308 97.5398 310.785 97.8381 311.199 98.2429C311.616 98.6477 311.944 99.1634 312.183 99.7898C312.422 100.412 312.541 101.153 312.541 102.014V102.724H304.493V101.164H310.323C310.319 100.721 310.223 100.327 310.035 99.9815C309.848 99.6321 309.586 99.3572 309.249 99.157C308.917 98.9567 308.529 98.8565 308.086 98.8565C307.613 98.8565 307.197 98.9716 306.839 99.2017C306.481 99.4276 306.202 99.7259 306.002 100.097C305.806 100.463 305.706 100.866 305.701 101.305V102.666C305.701 103.237 305.806 103.727 306.015 104.136C306.223 104.541 306.515 104.852 306.89 105.07C307.265 105.283 307.704 105.389 308.207 105.389C308.544 105.389 308.848 105.342 309.121 105.249C309.394 105.151 309.63 105.008 309.831 104.82C310.031 104.633 310.182 104.401 310.285 104.124L312.445 104.366C312.309 104.937 312.049 105.436 311.665 105.862C311.286 106.284 310.8 106.612 310.208 106.847C309.616 107.077 308.938 107.192 308.175 107.192ZM319.401 97.1818V98.9716H313.757V97.1818H319.401ZM315.15 94.8295H317.464V104.047C317.464 104.358 317.511 104.597 317.605 104.763C317.703 104.925 317.831 105.036 317.989 105.095C318.146 105.155 318.321 105.185 318.513 105.185C318.658 105.185 318.79 105.174 318.909 105.153C319.033 105.131 319.126 105.112 319.19 105.095L319.58 106.904C319.457 106.947 319.28 106.994 319.05 107.045C318.824 107.096 318.547 107.126 318.219 107.134C317.639 107.151 317.117 107.064 316.653 106.872C316.188 106.676 315.82 106.374 315.547 105.964C315.278 105.555 315.146 105.044 315.15 104.43V94.8295ZM328.627 107.198C328.004 107.198 327.444 107.087 326.945 106.866C326.451 106.64 326.059 106.308 325.769 105.869C325.484 105.43 325.341 104.888 325.341 104.245C325.341 103.691 325.443 103.233 325.648 102.871C325.852 102.509 326.131 102.219 326.485 102.001C326.839 101.784 327.237 101.62 327.68 101.509C328.128 101.394 328.59 101.311 329.068 101.26C329.643 101.2 330.109 101.147 330.467 101.1C330.825 101.049 331.085 100.972 331.247 100.87C331.413 100.763 331.497 100.599 331.497 100.378V100.339C331.497 99.858 331.354 99.4851 331.068 99.2209C330.783 98.9567 330.372 98.8246 329.835 98.8246C329.268 98.8246 328.818 98.9482 328.486 99.1953C328.158 99.4425 327.936 99.7344 327.821 100.071L325.661 99.7642C325.831 99.1676 326.112 98.669 326.504 98.2685C326.896 97.8636 327.376 97.5611 327.943 97.3608C328.509 97.1562 329.136 97.054 329.822 97.054C330.295 97.054 330.766 97.1094 331.234 97.2202C331.703 97.331 332.131 97.5142 332.519 97.7699C332.907 98.0213 333.218 98.3643 333.453 98.799C333.691 99.2337 333.81 99.777 333.81 100.429V107H331.586V105.651H331.509C331.369 105.924 331.171 106.18 330.915 106.418C330.663 106.653 330.346 106.842 329.962 106.987C329.583 107.128 329.138 107.198 328.627 107.198ZM329.227 105.498C329.692 105.498 330.095 105.406 330.435 105.223C330.776 105.036 331.038 104.788 331.222 104.482C331.409 104.175 331.503 103.84 331.503 103.478V102.321C331.43 102.381 331.307 102.436 331.132 102.487C330.962 102.538 330.77 102.583 330.557 102.621C330.344 102.66 330.133 102.694 329.924 102.724C329.715 102.754 329.534 102.779 329.381 102.8C329.036 102.847 328.727 102.924 328.454 103.031C328.181 103.137 327.966 103.286 327.808 103.478C327.651 103.665 327.572 103.908 327.572 104.207C327.572 104.633 327.727 104.955 328.038 105.172C328.35 105.389 328.746 105.498 329.227 105.498ZM262.295 131H257.859V117.909H262.384C263.684 117.909 264.8 118.171 265.734 118.695C266.671 119.215 267.391 119.963 267.894 120.939C268.397 121.915 268.648 123.082 268.648 124.442C268.648 125.805 268.395 126.977 267.888 127.957C267.385 128.937 266.658 129.69 265.708 130.214C264.762 130.738 263.624 131 262.295 131ZM260.23 128.948H262.18C263.092 128.948 263.852 128.782 264.462 128.45C265.071 128.113 265.529 127.612 265.836 126.947C266.143 126.278 266.296 125.443 266.296 124.442C266.296 123.44 266.143 122.609 265.836 121.949C265.529 121.284 265.075 120.788 264.474 120.46C263.878 120.127 263.136 119.961 262.25 119.961H260.23V128.948ZM273.625 131.198C273.002 131.198 272.442 131.087 271.943 130.866C271.449 130.64 271.057 130.308 270.767 129.869C270.482 129.43 270.339 128.888 270.339 128.245C270.339 127.691 270.441 127.233 270.646 126.871C270.85 126.509 271.13 126.219 271.483 126.001C271.837 125.784 272.235 125.62 272.679 125.509C273.126 125.394 273.588 125.311 274.066 125.26C274.641 125.2 275.108 125.147 275.465 125.1C275.823 125.049 276.083 124.972 276.245 124.87C276.411 124.763 276.495 124.599 276.495 124.378V124.339C276.495 123.858 276.352 123.485 276.066 123.221C275.781 122.957 275.37 122.825 274.833 122.825C274.266 122.825 273.816 122.948 273.484 123.195C273.156 123.442 272.934 123.734 272.819 124.071L270.659 123.764C270.829 123.168 271.11 122.669 271.502 122.268C271.894 121.864 272.374 121.561 272.941 121.361C273.507 121.156 274.134 121.054 274.82 121.054C275.293 121.054 275.764 121.109 276.233 121.22C276.701 121.331 277.13 121.514 277.517 121.77C277.905 122.021 278.216 122.364 278.451 122.799C278.689 123.234 278.809 123.777 278.809 124.429V131H276.584V129.651H276.507C276.367 129.924 276.169 130.18 275.913 130.418C275.661 130.653 275.344 130.842 274.96 130.987C274.581 131.128 274.136 131.198 273.625 131.198ZM274.225 129.498C274.69 129.498 275.093 129.406 275.434 129.223C275.774 129.036 276.036 128.788 276.22 128.482C276.407 128.175 276.501 127.84 276.501 127.478V126.321C276.429 126.381 276.305 126.436 276.13 126.487C275.96 126.538 275.768 126.583 275.555 126.621C275.342 126.66 275.131 126.694 274.922 126.724C274.713 126.754 274.532 126.779 274.379 126.8C274.034 126.847 273.725 126.924 273.452 127.031C273.179 127.137 272.964 127.286 272.806 127.478C272.649 127.665 272.57 127.908 272.57 128.207C272.57 128.633 272.725 128.955 273.036 129.172C273.348 129.389 273.744 129.498 274.225 129.498ZM286.038 121.182V122.972H280.394V121.182H286.038ZM281.787 118.83H284.101V128.047C284.101 128.358 284.148 128.597 284.242 128.763C284.34 128.925 284.468 129.036 284.625 129.095C284.783 129.155 284.958 129.185 285.149 129.185C285.294 129.185 285.426 129.174 285.546 129.153C285.669 129.131 285.763 129.112 285.827 129.095L286.217 130.904C286.093 130.947 285.916 130.994 285.686 131.045C285.46 131.096 285.184 131.126 284.855 131.134C284.276 131.151 283.754 131.064 283.289 130.872C282.825 130.676 282.456 130.374 282.184 129.964C281.915 129.555 281.783 129.044 281.787 128.43V118.83ZM292.214 131.192C291.23 131.192 290.38 130.987 289.664 130.578C288.952 130.165 288.405 129.581 288.021 128.827C287.638 128.068 287.446 127.175 287.446 126.148C287.446 125.138 287.638 124.252 288.021 123.489C288.409 122.722 288.95 122.126 289.645 121.7C290.339 121.269 291.155 121.054 292.093 121.054C292.698 121.054 293.269 121.152 293.806 121.348C294.347 121.54 294.824 121.838 295.238 122.243C295.655 122.648 295.983 123.163 296.222 123.79C296.461 124.412 296.58 125.153 296.58 126.014V126.724H288.532V125.164H294.362C294.358 124.721 294.262 124.327 294.074 123.982C293.887 123.632 293.625 123.357 293.288 123.157C292.956 122.957 292.568 122.857 292.125 122.857C291.652 122.857 291.236 122.972 290.878 123.202C290.52 123.428 290.241 123.726 290.041 124.097C289.845 124.463 289.745 124.866 289.741 125.305V126.666C289.741 127.237 289.845 127.727 290.054 128.136C290.263 128.541 290.554 128.852 290.929 129.07C291.304 129.283 291.743 129.389 292.246 129.389C292.583 129.389 292.888 129.342 293.16 129.249C293.433 129.151 293.669 129.008 293.87 128.82C294.07 128.633 294.221 128.401 294.324 128.124L296.484 128.366C296.348 128.937 296.088 129.436 295.704 129.862C295.325 130.284 294.839 130.612 294.247 130.847C293.655 131.077 292.977 131.192 292.214 131.192ZM306.914 131.192C306.019 131.192 305.25 131.03 304.607 130.706C303.963 130.382 303.467 129.945 303.117 129.396C302.772 128.842 302.6 128.217 302.6 127.523C302.6 126.999 302.706 126.534 302.919 126.129C303.137 125.724 303.435 125.349 303.814 125.004C304.198 124.659 304.641 124.316 305.144 123.975L307.464 122.396C307.805 122.175 308.063 121.94 308.237 121.693C308.416 121.446 308.506 121.156 308.506 120.824C308.506 120.543 308.387 120.276 308.148 120.025C307.914 119.773 307.59 119.648 307.176 119.648C306.899 119.648 306.654 119.714 306.441 119.846C306.233 119.974 306.068 120.142 305.949 120.351C305.834 120.56 305.777 120.781 305.777 121.016C305.777 121.301 305.855 121.591 306.013 121.885C306.175 122.179 306.384 122.484 306.639 122.799C306.899 123.114 307.176 123.449 307.47 123.803L313.613 131H311.108L306.007 125.158C305.627 124.714 305.261 124.278 304.907 123.847C304.558 123.417 304.27 122.969 304.044 122.505C303.823 122.036 303.712 121.529 303.712 120.984C303.712 120.366 303.855 119.814 304.14 119.328C304.426 118.838 304.824 118.452 305.335 118.171C305.851 117.89 306.454 117.749 307.144 117.749C307.835 117.749 308.427 117.886 308.921 118.158C309.416 118.431 309.797 118.793 310.066 119.245C310.334 119.697 310.468 120.189 310.468 120.722C310.468 121.339 310.315 121.893 310.008 122.384C309.701 122.869 309.275 123.31 308.73 123.707L306.083 125.643C305.649 125.959 305.338 126.278 305.15 126.602C304.963 126.922 304.869 127.195 304.869 127.42C304.869 127.766 304.956 128.079 305.131 128.36C305.306 128.641 305.551 128.867 305.866 129.038C306.186 129.204 306.559 129.287 306.985 129.287C307.453 129.287 307.916 129.183 308.372 128.974C308.828 128.761 309.243 128.458 309.618 128.066C309.993 127.674 310.291 127.205 310.513 126.66C310.735 126.11 310.845 125.501 310.845 124.832H312.833C312.833 125.658 312.742 126.379 312.559 126.992C312.375 127.602 312.139 128.117 311.849 128.539C311.559 128.957 311.252 129.291 310.929 129.543C310.826 129.615 310.728 129.688 310.634 129.76C310.541 129.832 310.443 129.905 310.34 129.977C309.88 130.395 309.341 130.702 308.723 130.898C308.11 131.094 307.507 131.192 306.914 131.192ZM326.619 121.508C326.56 120.95 326.308 120.515 325.865 120.204C325.426 119.893 324.855 119.737 324.152 119.737C323.658 119.737 323.234 119.812 322.88 119.961C322.526 120.11 322.256 120.312 322.068 120.568C321.881 120.824 321.785 121.116 321.781 121.444C321.781 121.717 321.842 121.953 321.966 122.153C322.094 122.354 322.266 122.524 322.484 122.665C322.701 122.801 322.942 122.916 323.206 123.01C323.47 123.104 323.737 123.183 324.005 123.246L325.232 123.553C325.727 123.668 326.202 123.824 326.658 124.02C327.118 124.216 327.529 124.463 327.891 124.761C328.258 125.06 328.548 125.42 328.761 125.842C328.974 126.263 329.08 126.758 329.08 127.325C329.08 128.092 328.884 128.767 328.492 129.351C328.1 129.93 327.533 130.384 326.792 130.712C326.055 131.036 325.162 131.198 324.114 131.198C323.095 131.198 322.211 131.04 321.461 130.725C320.715 130.41 320.131 129.95 319.71 129.344C319.292 128.739 319.066 128.002 319.032 127.133H321.365C321.399 127.589 321.54 127.968 321.787 128.271C322.034 128.573 322.356 128.799 322.752 128.948C323.153 129.097 323.6 129.172 324.095 129.172C324.61 129.172 325.062 129.095 325.45 128.942C325.842 128.784 326.149 128.567 326.37 128.29C326.592 128.009 326.705 127.68 326.709 127.305C326.705 126.964 326.604 126.683 326.408 126.462C326.212 126.236 325.938 126.048 325.584 125.899C325.234 125.746 324.825 125.609 324.357 125.49L322.867 125.107C321.789 124.83 320.937 124.41 320.31 123.847C319.688 123.281 319.377 122.528 319.377 121.591C319.377 120.82 319.586 120.144 320.004 119.565C320.426 118.985 320.999 118.536 321.723 118.216C322.448 117.892 323.268 117.73 324.184 117.73C325.113 117.73 325.927 117.892 326.626 118.216C327.329 118.536 327.881 118.981 328.281 119.552C328.682 120.119 328.889 120.771 328.901 121.508H326.619ZM335.439 131.192C334.454 131.192 333.604 130.987 332.888 130.578C332.177 130.165 331.629 129.581 331.246 128.827C330.862 128.068 330.67 127.175 330.67 126.148C330.67 125.138 330.862 124.252 331.246 123.489C331.633 122.722 332.175 122.126 332.869 121.7C333.564 121.269 334.38 121.054 335.317 121.054C335.922 121.054 336.494 121.152 337.03 121.348C337.572 121.54 338.049 121.838 338.462 122.243C338.88 122.648 339.208 123.163 339.447 123.79C339.685 124.412 339.805 125.153 339.805 126.014V126.724H331.757V125.164H337.587C337.582 124.721 337.486 124.327 337.299 123.982C337.111 123.632 336.849 123.357 336.513 123.157C336.18 122.957 335.793 122.857 335.349 122.857C334.876 122.857 334.461 122.972 334.103 123.202C333.745 123.428 333.466 123.726 333.266 124.097C333.07 124.463 332.969 124.866 332.965 125.305V126.666C332.965 127.237 333.07 127.727 333.278 128.136C333.487 128.541 333.779 128.852 334.154 129.07C334.529 129.283 334.968 129.389 335.471 129.389C335.807 129.389 336.112 129.342 336.385 129.249C336.658 129.151 336.894 129.008 337.094 128.82C337.295 128.633 337.446 128.401 337.548 128.124L339.709 128.366C339.572 128.937 339.312 129.436 338.929 129.862C338.55 130.284 338.064 130.612 337.472 130.847C336.879 131.077 336.202 131.192 335.439 131.192ZM341.762 131V121.182H344.006V122.818H344.108C344.287 122.251 344.594 121.815 345.028 121.508C345.467 121.197 345.968 121.041 346.531 121.041C346.658 121.041 346.801 121.048 346.959 121.06C347.121 121.069 347.255 121.084 347.362 121.105V123.234C347.264 123.2 347.108 123.17 346.895 123.144C346.686 123.114 346.484 123.099 346.288 123.099C345.866 123.099 345.487 123.191 345.15 123.374C344.818 123.553 344.555 123.803 344.364 124.122C344.172 124.442 344.076 124.81 344.076 125.228V131H341.762ZM348.899 131V121.182H351.213V131H348.899ZM350.062 119.788C349.696 119.788 349.38 119.667 349.116 119.424C348.852 119.177 348.72 118.881 348.72 118.536C348.72 118.186 348.852 117.89 349.116 117.647C349.38 117.4 349.696 117.276 350.062 117.276C350.433 117.276 350.748 117.4 351.008 117.647C351.272 117.89 351.405 118.186 351.405 118.536C351.405 118.881 351.272 119.177 351.008 119.424C350.748 119.667 350.433 119.788 350.062 119.788ZM356.418 131.198C355.795 131.198 355.235 131.087 354.736 130.866C354.242 130.64 353.85 130.308 353.56 129.869C353.275 129.43 353.132 128.888 353.132 128.245C353.132 127.691 353.234 127.233 353.439 126.871C353.643 126.509 353.922 126.219 354.276 126.001C354.63 125.784 355.028 125.62 355.472 125.509C355.919 125.394 356.381 125.311 356.859 125.26C357.434 125.2 357.9 125.147 358.258 125.1C358.616 125.049 358.876 124.972 359.038 124.87C359.204 124.763 359.288 124.599 359.288 124.378V124.339C359.288 123.858 359.145 123.485 358.859 123.221C358.574 122.957 358.163 122.825 357.626 122.825C357.059 122.825 356.609 122.948 356.277 123.195C355.949 123.442 355.727 123.734 355.612 124.071L353.452 123.764C353.622 123.168 353.903 122.669 354.295 122.268C354.687 121.864 355.167 121.561 355.734 121.361C356.3 121.156 356.927 121.054 357.613 121.054C358.086 121.054 358.557 121.109 359.025 121.22C359.494 121.331 359.922 121.514 360.31 121.77C360.698 122.021 361.009 122.364 361.244 122.799C361.482 123.234 361.601 123.777 361.601 124.429V131H359.377V129.651H359.3C359.16 129.924 358.962 130.18 358.706 130.418C358.454 130.653 358.137 130.842 357.753 130.987C357.374 131.128 356.929 131.198 356.418 131.198ZM357.018 129.498C357.483 129.498 357.886 129.406 358.226 129.223C358.567 129.036 358.829 128.788 359.013 128.482C359.2 128.175 359.294 127.84 359.294 127.478V126.321C359.222 126.381 359.098 126.436 358.923 126.487C358.753 126.538 358.561 126.583 358.348 126.621C358.135 126.66 357.924 126.694 357.715 126.724C357.506 126.754 357.325 126.779 357.172 126.8C356.827 126.847 356.518 126.924 356.245 127.031C355.972 127.137 355.757 127.286 355.599 127.478C355.442 127.665 355.363 127.908 355.363 128.207C355.363 128.633 355.518 128.955 355.829 129.172C356.141 129.389 356.537 129.498 357.018 129.498ZM366.242 117.909V131H363.928V117.909H366.242Z" fill="#52525B"/>
<rect x="448" width="176" height="160" rx="16" fill="white"/>
<path d="M545.6 64V62.5V64ZM526.4 64V65.5V64ZM552 57.6H553.5H552ZM551.564 61.8159L552.901 62.4969L551.564 61.8159ZM549.816 63.564L550.497 64.9005L549.816 63.564ZM549.816 32.436L550.497 31.0995V31.0995L549.816 32.436ZM552 38.4H550.5H552ZM551.564 34.1841L550.228 34.8651L551.564 34.1841ZM520.436 34.1841L519.099 33.5031L519.099 33.5031L520.436 34.1841ZM522.184 32.436L522.865 33.7725V33.7725L522.184 32.436ZM520.436 61.8159L521.772 61.135H521.772L520.436 61.8159ZM522.184 63.564L522.865 62.2275H522.865L522.184 63.564ZM528 46.5C527.172 46.5 526.5 47.1716 526.5 48C526.5 48.8284 527.172 49.5 528 49.5V46.5ZM544 49.5C544.828 49.5 545.5 48.8284 545.5 48C545.5 47.1716 544.828 46.5 544 46.5V49.5ZM534.5 56C534.5 56.8284 535.172 57.5 536 57.5C536.828 57.5 537.5 56.8284 537.5 56H534.5ZM537.5 40C537.5 39.1716 536.828 38.5 536 38.5C535.172 38.5 534.5 39.1716 534.5 40H537.5ZM521.5 57.6V38.4H518.5V57.6H521.5ZM526.4 33.5H545.6V30.5H526.4V33.5ZM545.6 62.5H526.4V65.5H545.6V62.5ZM550.5 57.6C550.5 58.7448 550.499 59.5133 550.451 60.105C550.404 60.6793 550.32 60.9538 550.228 61.135L552.901 62.4969C553.245 61.8224 553.379 61.1091 553.441 60.3493C553.502 59.607 553.5 58.6953 553.5 57.6H550.5ZM545.6 65.5C546.696 65.5 547.607 65.5012 548.349 65.4405C549.109 65.3784 549.822 65.2441 550.497 64.9005L549.135 62.2275C548.953 62.3198 548.679 62.4035 548.105 62.4505C547.513 62.4988 546.745 62.5 545.6 62.5V65.5ZM550.228 61.135C549.989 61.6047 549.606 61.9874 549.135 62.2275L550.497 64.9005C551.531 64.3735 552.373 63.5325 552.901 62.4969L550.228 61.135ZM545.6 33.5C546.745 33.5 547.513 33.5012 548.105 33.5495C548.679 33.5964 548.953 33.6802 549.135 33.7725L550.497 31.0995C549.822 30.7558 549.109 30.6216 548.349 30.5595C547.607 30.4988 546.696 30.5 545.6 30.5V33.5ZM553.5 38.4C553.5 37.3047 553.502 36.393 553.441 35.6507C553.379 34.8909 553.245 34.1776 552.901 33.5031L550.228 34.8651C550.32 35.0462 550.404 35.3208 550.451 35.895C550.499 36.4868 550.5 37.2552 550.5 38.4H553.5ZM549.135 33.7725C549.606 34.0125 549.989 34.3953 550.228 34.8651L552.901 33.5031C552.373 32.4676 551.531 31.6265 550.497 31.0995L549.135 33.7725ZM521.5 38.4C521.5 37.2552 521.501 36.4867 521.55 35.895C521.596 35.3208 521.68 35.0462 521.772 34.8651L519.099 33.5031C518.756 34.1776 518.622 34.8909 518.559 35.6507C518.499 36.3929 518.5 37.3047 518.5 38.4H521.5ZM526.4 30.5C525.305 30.5 524.393 30.4988 523.651 30.5595C522.891 30.6215 522.177 30.7557 521.503 31.0995L522.865 33.7725C523.046 33.6802 523.32 33.5964 523.895 33.5495C524.487 33.5012 525.256 33.5 526.4 33.5V30.5ZM521.772 34.8651C522.012 34.3943 522.395 34.012 522.865 33.7725L521.503 31.0995C520.467 31.627 519.627 32.4686 519.099 33.5031L521.772 34.8651ZM518.5 57.6C518.5 58.6954 518.499 59.6071 518.559 60.3493C518.622 61.1091 518.756 61.8224 519.099 62.4969L521.772 61.135C521.68 60.9538 521.596 60.6793 521.55 60.105C521.501 59.5133 521.5 58.7449 521.5 57.6H518.5ZM526.4 62.5C525.256 62.5 524.487 62.4988 523.895 62.4505C523.32 62.4035 523.046 62.3197 522.865 62.2275L521.503 64.9005C522.177 65.2442 522.891 65.3784 523.651 65.4405C524.393 65.5012 525.305 65.5 526.4 65.5V62.5ZM519.099 62.4969C519.627 63.5315 520.467 64.373 521.503 64.9005L522.865 62.2275C522.394 61.9879 522.012 61.6057 521.772 61.135L519.099 62.4969ZM550.5 38.4V57.6H553.5V38.4H550.5ZM528 49.5H544V46.5H528V49.5ZM537.5 56V40H534.5V56H537.5Z" fill="#52525B"/>
<path d="M514.667 98.326H512.277C512.209 97.9339 512.083 97.5866 511.9 97.2841C511.716 96.9773 511.488 96.7173 511.216 96.5043C510.943 96.2912 510.632 96.1314 510.282 96.0249C509.937 95.9141 509.564 95.8587 509.164 95.8587C508.452 95.8587 507.821 96.0376 507.272 96.3956C506.722 96.7493 506.292 97.2692 505.981 97.9553C505.669 98.6371 505.514 99.4702 505.514 100.455C505.514 101.456 505.669 102.3 505.981 102.986C506.296 103.668 506.726 104.183 507.272 104.533C507.821 104.878 508.45 105.05 509.157 105.05C509.549 105.05 509.916 104.999 510.257 104.897C510.602 104.79 510.911 104.635 511.184 104.43C511.461 104.226 511.693 103.974 511.88 103.676C512.072 103.378 512.204 103.037 512.277 102.653L514.667 102.666C514.578 103.288 514.384 103.872 514.086 104.418C513.792 104.963 513.406 105.445 512.929 105.862C512.451 106.276 511.893 106.599 511.254 106.834C510.615 107.064 509.905 107.179 509.125 107.179C507.975 107.179 506.948 106.913 506.044 106.38C505.141 105.847 504.429 105.078 503.91 104.072C503.39 103.067 503.13 101.861 503.13 100.455C503.13 99.044 503.392 97.8381 503.916 96.8366C504.44 95.831 505.154 95.0618 506.057 94.5291C506.961 93.9964 507.983 93.7301 509.125 93.7301C509.854 93.7301 510.532 93.8324 511.158 94.0369C511.785 94.2415 512.343 94.5419 512.833 94.9382C513.323 95.3303 513.726 95.8118 514.041 96.3828C514.361 96.9496 514.569 97.5973 514.667 98.326ZM521.019 107.192C520.061 107.192 519.23 106.981 518.527 106.559C517.823 106.137 517.278 105.547 516.89 104.788C516.507 104.03 516.315 103.143 516.315 102.129C516.315 101.115 516.507 100.227 516.89 99.4638C517.278 98.701 517.823 98.1087 518.527 97.6868C519.23 97.2649 520.061 97.054 521.019 97.054C521.978 97.054 522.809 97.2649 523.512 97.6868C524.215 98.1087 524.759 98.701 525.142 99.4638C525.53 100.227 525.724 101.115 525.724 102.129C525.724 103.143 525.53 104.03 525.142 104.788C524.759 105.547 524.215 106.137 523.512 106.559C522.809 106.981 521.978 107.192 521.019 107.192ZM521.032 105.338C521.552 105.338 521.987 105.195 522.336 104.91C522.686 104.62 522.946 104.232 523.116 103.746C523.291 103.261 523.378 102.719 523.378 102.123C523.378 101.522 523.291 100.979 523.116 100.493C522.946 100.003 522.686 99.6129 522.336 99.3232C521.987 99.0334 521.552 98.8885 521.032 98.8885C520.5 98.8885 520.056 99.0334 519.703 99.3232C519.353 99.6129 519.091 100.003 518.916 100.493C518.746 100.979 518.661 101.522 518.661 102.123C518.661 102.719 518.746 103.261 518.916 103.746C519.091 104.232 519.353 104.62 519.703 104.91C520.056 105.195 520.5 105.338 521.032 105.338ZM530.002 101.247V107H527.688V97.1818H529.9V98.8501H530.015C530.241 98.3004 530.601 97.8636 531.095 97.5398C531.593 97.2159 532.209 97.054 532.942 97.054C533.62 97.054 534.21 97.1989 534.713 97.4886C535.22 97.7784 535.612 98.1982 535.889 98.7479C536.17 99.2976 536.309 99.9645 536.304 100.749V107H533.991V101.107C533.991 100.45 533.82 99.9368 533.479 99.5661C533.142 99.1953 532.676 99.0099 532.079 99.0099C531.674 99.0099 531.314 99.0994 530.999 99.2784C530.688 99.4531 530.443 99.7067 530.264 100.039C530.089 100.371 530.002 100.774 530.002 101.247ZM546.417 99.777L544.307 100.007C544.248 99.794 544.143 99.5938 543.994 99.4062C543.849 99.2188 543.653 99.0675 543.406 98.9524C543.159 98.8374 542.856 98.7798 542.498 98.7798C542.017 98.7798 541.612 98.8842 541.284 99.093C540.96 99.3018 540.8 99.5724 540.804 99.9048C540.8 100.19 540.905 100.423 541.118 100.602C541.335 100.781 541.693 100.928 542.191 101.043L543.866 101.401C544.795 101.601 545.486 101.918 545.937 102.353C546.393 102.788 546.623 103.357 546.628 104.06C546.623 104.678 546.442 105.223 546.084 105.696C545.731 106.165 545.238 106.531 544.608 106.795C543.977 107.06 543.253 107.192 542.434 107.192C541.233 107.192 540.265 106.94 539.532 106.438C538.799 105.93 538.363 105.225 538.222 104.322L540.478 104.104C540.581 104.548 540.798 104.882 541.13 105.108C541.463 105.334 541.895 105.447 542.428 105.447C542.978 105.447 543.419 105.334 543.751 105.108C544.088 104.882 544.256 104.603 544.256 104.271C544.256 103.989 544.147 103.757 543.93 103.574C543.717 103.391 543.385 103.25 542.933 103.152L541.258 102.8C540.316 102.604 539.62 102.274 539.168 101.81C538.716 101.341 538.493 100.749 538.497 100.033C538.493 99.4276 538.657 98.9034 538.989 98.4602C539.326 98.0128 539.792 97.6676 540.389 97.4247C540.99 97.1776 541.682 97.054 542.466 97.054C543.617 97.054 544.522 97.299 545.183 97.7891C545.848 98.2791 546.259 98.9418 546.417 99.777ZM554.793 102.871V97.1818H557.107V107H554.864V105.255H554.761C554.54 105.805 554.176 106.254 553.668 106.604C553.166 106.953 552.546 107.128 551.808 107.128C551.165 107.128 550.596 106.985 550.102 106.7C549.612 106.41 549.228 105.99 548.951 105.44C548.674 104.886 548.536 104.217 548.536 103.433V97.1818H550.85V103.075C550.85 103.697 551.02 104.192 551.361 104.558C551.702 104.925 552.149 105.108 552.703 105.108C553.044 105.108 553.374 105.025 553.694 104.859C554.014 104.692 554.276 104.445 554.48 104.117C554.689 103.785 554.793 103.369 554.793 102.871ZM561.801 93.9091V107H559.487V93.9091H561.801ZM569.083 97.1818V98.9716H563.439V97.1818H569.083ZM564.832 94.8295H567.146V104.047C567.146 104.358 567.193 104.597 567.287 104.763C567.385 104.925 567.513 105.036 567.67 105.095C567.828 105.155 568.003 105.185 568.194 105.185C568.339 105.185 568.471 105.174 568.591 105.153C568.714 105.131 568.808 105.112 568.872 105.095L569.262 106.904C569.138 106.947 568.961 106.994 568.731 107.045C568.505 107.096 568.228 107.126 567.9 107.134C567.321 107.151 566.799 107.064 566.334 106.872C565.87 106.676 565.501 106.374 565.228 105.964C564.96 105.555 564.828 105.044 564.832 104.43V94.8295ZM483.609 117.909H486.287L489.49 123.7H489.618L492.82 117.909H495.498L490.736 126.116V131H488.371V126.116L483.609 117.909ZM499.53 131.192C498.571 131.192 497.74 130.981 497.037 130.559C496.334 130.137 495.789 129.547 495.401 128.788C495.017 128.03 494.826 127.143 494.826 126.129C494.826 125.115 495.017 124.227 495.401 123.464C495.789 122.701 496.334 122.109 497.037 121.687C497.74 121.265 498.571 121.054 499.53 121.054C500.489 121.054 501.32 121.265 502.023 121.687C502.726 122.109 503.27 122.701 503.653 123.464C504.041 124.227 504.235 125.115 504.235 126.129C504.235 127.143 504.041 128.03 503.653 128.788C503.27 129.547 502.726 130.137 502.023 130.559C501.32 130.981 500.489 131.192 499.53 131.192ZM499.543 129.338C500.063 129.338 500.498 129.195 500.847 128.91C501.196 128.62 501.456 128.232 501.627 127.746C501.801 127.261 501.889 126.719 501.889 126.123C501.889 125.522 501.801 124.979 501.627 124.493C501.456 124.003 501.196 123.613 500.847 123.323C500.498 123.033 500.063 122.888 499.543 122.888C499.01 122.888 498.567 123.033 498.213 123.323C497.864 123.613 497.602 124.003 497.427 124.493C497.257 124.979 497.172 125.522 497.172 126.123C497.172 126.719 497.257 127.261 497.427 127.746C497.602 128.232 497.864 128.62 498.213 128.91C498.567 129.195 499.01 129.338 499.543 129.338ZM512.456 126.871V121.182H514.77V131H512.527V129.255H512.425C512.203 129.805 511.839 130.254 511.331 130.604C510.829 130.953 510.209 131.128 509.471 131.128C508.828 131.128 508.259 130.985 507.765 130.7C507.275 130.41 506.891 129.99 506.614 129.44C506.337 128.886 506.199 128.217 506.199 127.433V121.182H508.513V127.075C508.513 127.697 508.683 128.192 509.024 128.558C509.365 128.925 509.812 129.108 510.366 129.108C510.707 129.108 511.037 129.025 511.357 128.859C511.677 128.692 511.939 128.445 512.143 128.117C512.352 127.785 512.456 127.369 512.456 126.871ZM517.15 131V121.182H519.393V122.818H519.496C519.675 122.251 519.982 121.815 520.416 121.508C520.855 121.197 521.356 121.041 521.918 121.041C522.046 121.041 522.189 121.048 522.347 121.06C522.509 121.069 522.643 121.084 522.749 121.105V123.234C522.651 123.2 522.496 123.17 522.283 123.144C522.074 123.114 521.871 123.099 521.675 123.099C521.254 123.099 520.874 123.191 520.538 123.374C520.205 123.553 519.943 123.803 519.751 124.122C519.56 124.442 519.464 124.81 519.464 125.228V131H517.15ZM532.395 131.173C531.624 131.173 530.933 130.974 530.324 130.578C529.714 130.182 529.233 129.607 528.879 128.852C528.526 128.098 528.349 127.182 528.349 126.104C528.349 125.013 528.528 124.092 528.886 123.342C529.248 122.588 529.736 122.019 530.349 121.636C530.963 121.248 531.647 121.054 532.401 121.054C532.977 121.054 533.45 121.152 533.82 121.348C534.191 121.54 534.485 121.772 534.702 122.045C534.92 122.313 535.088 122.567 535.207 122.805H535.303V117.909H537.624V131H535.348V129.453H535.207C535.088 129.692 534.915 129.945 534.69 130.214C534.464 130.478 534.165 130.704 533.795 130.891C533.424 131.079 532.957 131.173 532.395 131.173ZM533.04 129.274C533.531 129.274 533.948 129.142 534.293 128.878C534.638 128.609 534.901 128.237 535.08 127.759C535.259 127.282 535.348 126.726 535.348 126.091C535.348 125.456 535.259 124.904 535.08 124.435C534.905 123.967 534.645 123.602 534.3 123.342C533.959 123.082 533.539 122.952 533.04 122.952C532.525 122.952 532.094 123.087 531.749 123.355C531.404 123.624 531.144 123.994 530.969 124.467C530.795 124.94 530.707 125.482 530.707 126.091C530.707 126.705 530.795 127.252 530.969 127.734C531.148 128.211 531.411 128.588 531.756 128.865C532.105 129.138 532.533 129.274 533.04 129.274ZM544.436 131.192C543.452 131.192 542.601 130.987 541.885 130.578C541.174 130.165 540.626 129.581 540.243 128.827C539.859 128.068 539.667 127.175 539.667 126.148C539.667 125.138 539.859 124.252 540.243 123.489C540.631 122.722 541.172 122.126 541.866 121.7C542.561 121.269 543.377 121.054 544.314 121.054C544.92 121.054 545.491 121.152 546.028 121.348C546.569 121.54 547.046 121.838 547.459 122.243C547.877 122.648 548.205 123.163 548.444 123.79C548.682 124.412 548.802 125.153 548.802 126.014V126.724H540.754V125.164H546.584C546.579 124.721 546.483 124.327 546.296 123.982C546.108 123.632 545.846 123.357 545.51 123.157C545.177 122.957 544.79 122.857 544.346 122.857C543.873 122.857 543.458 122.972 543.1 123.202C542.742 123.428 542.463 123.726 542.263 124.097C542.067 124.463 541.966 124.866 541.962 125.305V126.666C541.962 127.237 542.067 127.727 542.275 128.136C542.484 128.541 542.776 128.852 543.151 129.07C543.526 129.283 543.965 129.389 544.468 129.389C544.805 129.389 545.109 129.342 545.382 129.249C545.655 129.151 545.891 129.008 546.091 128.82C546.292 128.633 546.443 128.401 546.545 128.124L548.706 128.366C548.569 128.937 548.309 129.436 547.926 129.862C547.547 130.284 547.061 130.612 546.469 130.847C545.876 131.077 545.199 131.192 544.436 131.192ZM553.073 125.247V131H550.759V121.182H552.971V122.85H553.086C553.312 122.3 553.672 121.864 554.166 121.54C554.665 121.216 555.281 121.054 556.013 121.054C556.691 121.054 557.281 121.199 557.784 121.489C558.291 121.778 558.683 122.198 558.96 122.748C559.241 123.298 559.38 123.964 559.376 124.749V131H557.062V125.107C557.062 124.45 556.891 123.937 556.55 123.566C556.214 123.195 555.747 123.01 555.151 123.01C554.746 123.01 554.386 123.099 554.07 123.278C553.759 123.453 553.514 123.707 553.335 124.039C553.161 124.371 553.073 124.774 553.073 125.247ZM566.631 121.182V122.972H560.987V121.182H566.631ZM562.38 118.83H564.694V128.047C564.694 128.358 564.741 128.597 564.835 128.763C564.933 128.925 565.06 129.036 565.218 129.095C565.376 129.155 565.55 129.185 565.742 129.185C565.887 129.185 566.019 129.174 566.138 129.153C566.262 129.131 566.356 129.112 566.42 129.095L566.81 130.904C566.686 130.947 566.509 130.994 566.279 131.045C566.053 131.096 565.776 131.126 565.448 131.134C564.869 131.151 564.347 131.064 563.882 130.872C563.418 130.676 563.049 130.374 562.776 129.964C562.508 129.555 562.376 129.044 562.38 128.43V118.83ZM568.566 131V121.182H570.88V131H568.566ZM569.729 119.788C569.363 119.788 569.047 119.667 568.783 119.424C568.519 119.177 568.387 118.881 568.387 118.536C568.387 118.186 568.519 117.89 568.783 117.647C569.047 117.4 569.363 117.276 569.729 117.276C570.1 117.276 570.415 117.4 570.675 117.647C570.939 117.89 571.072 118.186 571.072 118.536C571.072 118.881 570.939 119.177 570.675 119.424C570.415 119.667 570.1 119.788 569.729 119.788ZM581.019 123.777L578.91 124.007C578.85 123.794 578.746 123.594 578.597 123.406C578.452 123.219 578.256 123.067 578.009 122.952C577.761 122.837 577.459 122.78 577.101 122.78C576.619 122.78 576.214 122.884 575.886 123.093C575.562 123.302 575.403 123.572 575.407 123.905C575.403 124.19 575.507 124.423 575.72 124.602C575.938 124.781 576.295 124.928 576.794 125.043L578.469 125.401C579.398 125.601 580.088 125.918 580.54 126.353C580.996 126.788 581.226 127.357 581.23 128.06C581.226 128.678 581.045 129.223 580.687 129.696C580.333 130.165 579.841 130.531 579.21 130.795C578.58 131.06 577.855 131.192 577.037 131.192C575.835 131.192 574.868 130.94 574.135 130.438C573.402 129.93 572.965 129.225 572.825 128.322L575.081 128.104C575.183 128.548 575.401 128.882 575.733 129.108C576.065 129.334 576.498 129.447 577.031 129.447C577.58 129.447 578.021 129.334 578.354 129.108C578.69 128.882 578.859 128.603 578.859 128.271C578.859 127.989 578.75 127.757 578.533 127.574C578.32 127.391 577.987 127.25 577.536 127.152L575.861 126.8C574.919 126.604 574.222 126.274 573.771 125.81C573.319 125.341 573.095 124.749 573.099 124.033C573.095 123.428 573.259 122.903 573.592 122.46C573.928 122.013 574.395 121.668 574.991 121.425C575.592 121.178 576.285 121.054 577.069 121.054C578.219 121.054 579.125 121.299 579.786 121.789C580.45 122.279 580.862 122.942 581.019 123.777ZM588.041 121.182V122.972H582.397V121.182H588.041ZM583.79 118.83H586.104V128.047C586.104 128.358 586.151 128.597 586.245 128.763C586.343 128.925 586.471 129.036 586.628 129.095C586.786 129.155 586.961 129.185 587.152 129.185C587.297 129.185 587.429 129.174 587.549 129.153C587.672 129.131 587.766 129.112 587.83 129.095L588.22 130.904C588.096 130.947 587.919 130.994 587.689 131.045C587.463 131.096 587.186 131.126 586.858 131.134C586.279 131.151 585.757 131.064 585.292 130.872C584.828 130.676 584.459 130.374 584.186 129.964C583.918 129.555 583.786 129.044 583.79 128.43V118.83Z" fill="#52525B"/>
</svg>
